<svg width="24" height="24" viewBox="0 0 24 24" fill="none" xmlns="http://www.w3.org/2000/svg">
<rect width="24" height="24" rx="8" fill="#142D6C"/>
<path fillRule="evenodd" clipRule="evenodd" d="M12.9666 7.25214H15.0133C17.4733 7.25214 18.6733 8.56548 18.6666 11.2588V14.5055C18.6666 17.0788 17.0799 18.6655 14.4999 18.6655H9.49325C6.92659 18.6655 5.33325 17.0788 5.33325 14.4988V9.49215C5.33325 6.73214 6.55992 5.33215 8.97992 5.33215H10.0333C10.6539 5.32548 11.2333 5.61215 11.6133 6.09881L12.1999 6.87881C12.3866 7.11215 12.6666 7.25214 12.9666 7.25214ZM8.91325 14.1921H15.0866C15.3599 14.1921 15.5799 13.9654 15.5799 13.6921C15.5799 13.4121 15.3599 13.1921 15.0866 13.1921H8.91325C8.63325 13.1921 8.41325 13.4121 8.41325 13.6921C8.41325 13.9654 8.63325 14.1921 8.91325 14.1921Z" fill="white"/>
</svg>
