<svg width="24" height="24" viewBox="0 0 24 24" fill="none" xmlns="http://www.w3.org/2000/svg">
<rect width="24" height="24" rx="8" fill="#99C3FD"/>
<path fillRule="evenodd" clipRule="evenodd" d="M17.4287 11.0324L17.942 14.9254C18.3227 17.4666 16.8087 18.5 14.7754 18.5H9.2487C7.20937 18.5 5.6487 17.7851 6.0687 14.9254L6.5887 11.0324C6.6687 10.454 6.95537 9.91457 7.40204 9.51812C7.7427 9.22631 8.18204 9.06968 8.63537 9.06968V8.9202C8.58204 7.71785 9.21604 6.58049 10.282 5.96307C11.3487 5.34564 12.682 5.34564 13.7487 5.96307C14.8154 6.58049 15.442 7.71785 15.3954 8.9202V9.06968C16.2354 9.06968 17.122 9.64161 17.4287 11.0324ZM9.64844 8.92063C9.64844 7.65979 10.7018 6.63291 12.0018 6.63291C13.3084 6.63291 14.3618 7.65979 14.3618 8.92063V9.06426H9.64844V8.92063ZM9.46875 11.735C9.46875 12.047 9.73542 12.3069 10.0621 12.3069C10.3888 12.3069 10.6487 12.047 10.6487 11.735C10.6487 11.4166 10.3888 11.1631 10.0621 11.1631C9.73542 11.1631 9.46875 11.4166 9.46875 11.735ZM13.9283 12.3069C14.0816 12.3069 14.235 12.2484 14.3416 12.138C14.455 12.034 14.515 11.8845 14.515 11.735C14.515 11.4166 14.2483 11.1631 13.9283 11.1631C13.6023 11.1631 13.335 11.4166 13.335 11.735C13.335 12.047 13.6023 12.3069 13.9283 12.3069Z" fill="white"/>
</svg>
