<svg width="24" height="24" viewBox="0 0 24 24" fill="none" xmlns="http://www.w3.org/2000/svg">
<rect width="24" height="24" rx="8" fill="#F87FBA"/>
<path fillRule="evenodd" clipRule="evenodd" d="M15.3672 7.06655C15.3672 6.20202 16.0692 5.5 16.9337 5.5C17.7983 5.5 18.5003 6.20202 18.5003 7.06655C18.5003 7.93107 17.7983 8.63309 16.9337 8.63309C16.0692 8.63309 15.3672 7.93107 15.3672 7.06655ZM12.8644 13.7928L14.743 11.3689L14.717 11.3819C14.821 11.2389 14.8405 11.0569 14.769 10.8944C14.6981 10.7319 14.5415 10.6214 14.3731 10.6084C14.197 10.5889 14.0221 10.6669 13.9175 10.8099L12.3451 12.8445L10.5439 11.4274C10.4333 11.3429 10.3033 11.3098 10.1733 11.3234C10.044 11.3429 9.92698 11.4138 9.84833 11.5178L7.92492 14.021L7.88527 14.0795C7.77477 14.2869 7.82677 14.5534 8.02178 14.697C8.11278 14.7555 8.21028 14.7945 8.32079 14.7945C8.47094 14.801 8.61329 14.7224 8.7043 14.5995L10.3358 12.4993L12.1884 13.891L12.2469 13.9293C12.4549 14.0398 12.7149 13.9885 12.8644 13.7928ZM14.2428 6.65622C14.2168 6.81872 14.2038 6.98123 14.2038 7.14373C14.2038 8.60628 15.3868 9.78866 16.8428 9.78866C17.0053 9.78866 17.1613 9.76981 17.3238 9.74381V14.9888C17.3238 17.193 16.0238 18.4996 13.8137 18.4996H9.01075C6.80004 18.4996 5.5 17.193 5.5 14.9888V10.1793C5.5 7.96926 6.80004 6.65622 9.01075 6.65622H14.2428Z" fill="white"/>
</svg>
