<svg xmlns="http://www.w3.org/2000/svg" id="Layer_1" data-name="Layer 1" viewBox="0 0 659.12 131.24">
    <defs>
        <style>
            .cls-1 {
                fill: #565656;
            }

            .cls-2 {
                fill: #2157a6;
            }

            .cls-3 {
                fill: #fff;
            }
        </style>
    </defs>
    <path class="cls-1" d="M21.31,44.06H.24V26.53H62.31V44.06h-21v70.76h-20Z" transform="translate(-0.24 -11.41)" />
    <path class="cls-1"
        d="M93.08,114.82H72.74V59.91H93.08V68.4h-.34a13.44,13.44,0,0,1,2.61-3.91,19.12,19.12,0,0,1,5.82-4.28,20,20,0,0,1,9.16-1.91,20.37,20.37,0,0,1,7,1.17A20.09,20.09,0,0,1,122,61.71l-7.89,16.53a11,11,0,0,0-3.31-2.38,12.81,12.81,0,0,0-5.92-1.24A10.57,10.57,0,0,0,98.2,76.7a12.3,12.3,0,0,0-3.88,5,14.33,14.33,0,0,0-1.24,5.55Z"
        transform="translate(-0.24 -11.41)" />
    <path class="cls-1" d="M156.55,97.23,171.4,59.91h19.94l-37.73,82.74H133.28L146,114.82,123,59.91h20.27Z"
        transform="translate(-0.24 -11.41)" />
    <path class="cls-1" d="M215.41,44.06H194.34V26.53h62.08V44.06h-21v70.76h-20Z" transform="translate(-0.24 -11.41)" />
    <path class="cls-1"
        d="M306.85,58.3a28.42,28.42,0,0,1,11.24,2.34,21,21,0,0,1,9,7.39q3.54,5.06,3.54,13.28v33.51H310.33V84.66c0-3.93-.88-6.88-2.65-8.87a9.12,9.12,0,0,0-7.19-3,11.39,11.39,0,0,0-5.75,1.57,12.29,12.29,0,0,0-4.45,4.41,12.5,12.5,0,0,0-1.7,6.52v29.5h-20.4v-92h20.4V68a10.65,10.65,0,0,1,3.31-4.45,21.5,21.5,0,0,1,6.49-3.74A23.24,23.24,0,0,1,306.85,58.3Z"
        transform="translate(-0.24 -11.41)" />
    <path class="cls-1"
        d="M386.64,114.82v-8.89a16.6,16.6,0,0,1-3,3.88,23.92,23.92,0,0,1-6.46,4.58,20.36,20.36,0,0,1-9.36,2,25.22,25.22,0,0,1-14-3.92,26.58,26.58,0,0,1-9.36-10.5,33.65,33.65,0,0,1,0-29.23,26.94,26.94,0,0,1,9.36-10.53,25.07,25.07,0,0,1,14-4,23.13,23.13,0,0,1,9,1.64,21.37,21.37,0,0,1,6.29,3.88,15.58,15.58,0,0,1,3.34,4.11v-8h20.2v54.91ZM361,87.4a13,13,0,0,0,1.74,6.72,12.5,12.5,0,0,0,4.65,4.65,12.76,12.76,0,0,0,6.45,1.67,12.49,12.49,0,0,0,6.49-1.67,12.07,12.07,0,0,0,4.45-4.65,14.59,14.59,0,0,0,0-13.44,12,12,0,0,0-10.94-6.39,12.58,12.58,0,0,0-6.45,1.7,12.83,12.83,0,0,0-4.65,4.69A13,13,0,0,0,361,87.4Z"
        transform="translate(-0.24 -11.41)" />
    <path class="cls-1"
        d="M416.21,59.91h9.36V37.37H445.7V59.91H458V76.63H445.7V92a12.85,12.85,0,0,0,1,5.51,3.7,3.7,0,0,0,3.68,2.11,5.66,5.66,0,0,0,3.07-.8A12.31,12.31,0,0,0,455,97.7l7,14.45a16.5,16.5,0,0,1-2.91,1.47,36.27,36.27,0,0,1-6.19,1.94,37,37,0,0,1-8.36.87q-8.22,0-13.58-4.65t-5.35-14.35V76.63h-9.36Z"
        transform="translate(-0.24 -11.41)" />
    <rect class="cls-2" x="484.33" width="174.79" height="119.44" rx="13.63" />
    <path class="cls-3"
        d="M513.64,116.43a12.21,12.21,0,0,1-12.1-12.11,11.8,11.8,0,0,1,3.57-8.66,12.07,12.07,0,0,1,17.16,0,11.86,11.86,0,0,1,3.55,8.66,12.17,12.17,0,0,1-12.18,12.11Z"
        transform="translate(-0.24 -11.41)" />
    <path class="cls-3"
        d="M584.54,114.82v-8.89a16.6,16.6,0,0,1-3,3.88,23.92,23.92,0,0,1-6.46,4.58,20.36,20.36,0,0,1-9.36,2,25.22,25.22,0,0,1-14-3.92,26.58,26.58,0,0,1-9.36-10.5,33.65,33.65,0,0,1,0-29.23,26.94,26.94,0,0,1,9.36-10.53,25.07,25.07,0,0,1,14-4,23.13,23.13,0,0,1,9,1.64A21.37,21.37,0,0,1,581,63.82a15.58,15.58,0,0,1,3.34,4.11v-8h20.2v54.91ZM558.86,87.4a13,13,0,0,0,1.74,6.72,12.5,12.5,0,0,0,4.65,4.65,12.73,12.73,0,0,0,6.45,1.67,12.52,12.52,0,0,0,6.49-1.67,12.07,12.07,0,0,0,4.45-4.65,14.67,14.67,0,0,0,0-13.44,12,12,0,0,0-10.94-6.39,12.56,12.56,0,0,0-6.45,1.7,12.83,12.83,0,0,0-4.65,4.69A13,13,0,0,0,558.86,87.4Z"
        transform="translate(-0.24 -11.41)" />
    <path class="cls-3"
        d="M629.89,48.6a11.45,11.45,0,0,1-11.5-11.43A11.24,11.24,0,0,1,621.76,29a11.28,11.28,0,0,1,13.88-1.87,12.32,12.32,0,0,1,4.22,4.18,11.29,11.29,0,0,1-1.81,13.88A11.18,11.18,0,0,1,629.89,48.6Zm-10.43,66.22V59.91h20.33v54.91Z"
        transform="translate(-0.24 -11.41)" />
</svg>