<svg width="800" height="1080" viewBox="0 0 800 1080" fill="none" xmlns="http://www.w3.org/2000/svg">
<g clipPath="url(#clip0_1_2818)">
<rect width="800" height="1080" fill="#F8F8FC"/>
<path d="M364.386 414.692C366.575 414.692 368.35 412.919 368.35 410.731C368.35 408.543 366.575 406.77 364.386 406.77C362.197 406.77 360.422 408.543 360.422 410.731C360.422 412.919 362.197 414.692 364.386 414.692Z" fill="#2950B1"/>
<path d="M382.344 414.692C384.534 414.692 386.309 412.919 386.309 410.731C386.309 408.543 384.534 406.77 382.344 406.77C380.155 406.77 378.38 408.543 378.38 410.731C378.38 412.919 380.155 414.692 382.344 414.692Z" fill="#2950B1"/>
<path d="M400.273 414.692C402.462 414.692 404.237 412.919 404.237 410.731C404.237 408.543 402.462 406.77 400.273 406.77C398.083 406.77 396.309 408.543 396.309 410.731C396.309 412.919 398.083 414.692 400.273 414.692Z" fill="#2950B1"/>
<path d="M418.201 414.692C420.391 414.692 422.166 412.919 422.166 410.731C422.166 408.543 420.391 406.77 418.201 406.77C416.012 406.77 414.237 408.543 414.237 410.731C414.237 412.919 416.012 414.692 418.201 414.692Z" fill="#2950B1"/>
<path d="M364.386 428.917C366.575 428.917 368.35 427.143 368.35 424.955C368.35 422.768 366.575 420.994 364.386 420.994C362.197 420.994 360.422 422.768 360.422 424.955C360.422 427.143 362.197 428.917 364.386 428.917Z" fill="#2950B1"/>
<path d="M382.344 428.917C384.534 428.917 386.309 427.143 386.309 424.955C386.309 422.768 384.534 420.994 382.344 420.994C380.155 420.994 378.38 422.768 378.38 424.955C378.38 427.143 380.155 428.917 382.344 428.917Z" fill="#2950B1"/>
<path d="M400.273 428.917C402.462 428.917 404.237 427.143 404.237 424.955C404.237 422.768 402.462 420.994 400.273 420.994C398.083 420.994 396.309 422.768 396.309 424.955C396.309 427.143 398.083 428.917 400.273 428.917Z" fill="#2950B1"/>
<path d="M418.201 428.917C420.391 428.917 422.166 427.143 422.166 424.955C422.166 422.768 420.391 420.994 418.201 420.994C416.012 420.994 414.237 422.768 414.237 424.955C414.237 427.143 416.012 428.917 418.201 428.917Z" fill="#2950B1"/>
<path d="M368.265 440.139C368.768 438.01 367.449 435.877 365.318 435.374C363.188 434.871 361.053 436.19 360.55 438.319C360.047 440.448 361.366 442.581 363.497 443.084C365.627 443.587 367.762 442.268 368.265 440.139Z" fill="#2950B1"/>
<path d="M386.265 439.82C386.616 437.661 385.148 435.626 382.987 435.276C380.826 434.925 378.79 436.392 378.439 438.551C378.089 440.711 379.556 442.746 381.717 443.096C383.878 443.447 385.914 441.98 386.265 439.82Z" fill="#2950B1"/>
<path d="M404.206 439.835C404.557 437.675 403.089 435.64 400.928 435.29C398.767 434.939 396.731 436.406 396.38 438.565C396.029 440.725 397.497 442.76 399.658 443.11C401.819 443.461 403.855 441.994 404.206 439.835Z" fill="#2950B1"/>
<path d="M422.147 439.848C422.497 437.689 421.03 435.654 418.869 435.303C416.708 434.953 414.671 436.419 414.321 438.579C413.97 440.739 415.437 442.773 417.599 443.124C419.76 443.474 421.796 442.008 422.147 439.848Z" fill="#2950B1"/>
<path d="M364.386 457.397C366.575 457.397 368.35 455.623 368.35 453.435C368.35 451.248 366.575 449.474 364.386 449.474C362.197 449.474 360.422 451.248 360.422 453.435C360.422 455.623 362.197 457.397 364.386 457.397Z" fill="#2950B1"/>
<path d="M382.344 457.397C384.534 457.397 386.309 455.623 386.309 453.435C386.309 451.248 384.534 449.474 382.344 449.474C380.155 449.474 378.38 451.248 378.38 453.435C378.38 455.623 380.155 457.397 382.344 457.397Z" fill="#2950B1"/>
<path d="M400.273 457.397C402.462 457.397 404.237 455.623 404.237 453.435C404.237 451.248 402.462 449.474 400.273 449.474C398.083 449.474 396.309 451.248 396.309 453.435C396.309 455.623 398.083 457.397 400.273 457.397Z" fill="#2950B1"/>
<path d="M418.201 457.397C420.391 457.397 422.166 455.623 422.166 453.435C422.166 451.248 420.391 449.474 418.201 449.474C416.012 449.474 414.237 451.248 414.237 453.435C414.237 455.623 416.012 457.397 418.201 457.397Z" fill="#2950B1"/>
<path d="M364.386 471.621C366.575 471.621 368.35 469.848 368.35 467.66C368.35 465.472 366.575 463.699 364.386 463.699C362.197 463.699 360.422 465.472 360.422 467.66C360.422 469.848 362.197 471.621 364.386 471.621Z" fill="#2950B1"/>
<path d="M382.344 471.621C384.534 471.621 386.309 469.848 386.309 467.66C386.309 465.472 384.534 463.699 382.344 463.699C380.155 463.699 378.38 465.472 378.38 467.66C378.38 469.848 380.155 471.621 382.344 471.621Z" fill="#2950B1"/>
<path d="M400.273 471.621C402.462 471.621 404.237 469.848 404.237 467.66C404.237 465.472 402.462 463.699 400.273 463.699C398.083 463.699 396.309 465.472 396.309 467.66C396.309 469.848 398.083 471.621 400.273 471.621Z" fill="#2950B1"/>
<path d="M418.201 471.621C420.391 471.621 422.166 469.848 422.166 467.66C422.166 465.472 420.391 463.699 418.201 463.699C416.012 463.699 414.237 465.472 414.237 467.66C414.237 469.848 416.012 471.621 418.201 471.621Z" fill="#2950B1"/>
<path d="M364.386 485.847C366.575 485.847 368.35 484.073 368.35 481.885C368.35 479.697 366.575 477.924 364.386 477.924C362.197 477.924 360.422 479.697 360.422 481.885C360.422 484.073 362.197 485.847 364.386 485.847Z" fill="#2950B1"/>
<path d="M382.344 485.847C384.534 485.847 386.309 484.073 386.309 481.885C386.309 479.697 384.534 477.924 382.344 477.924C380.155 477.924 378.38 479.697 378.38 481.885C378.38 484.073 380.155 485.847 382.344 485.847Z" fill="#2950B1"/>
<path d="M400.273 485.847C402.462 485.847 404.237 484.073 404.237 481.885C404.237 479.697 402.462 477.924 400.273 477.924C398.083 477.924 396.309 479.697 396.309 481.885C396.309 484.073 398.083 485.847 400.273 485.847Z" fill="#2950B1"/>
<path d="M418.201 485.847C420.391 485.847 422.166 484.073 422.166 481.885C422.166 479.697 420.391 477.924 418.201 477.924C416.012 477.924 414.237 479.697 414.237 481.885C414.237 484.073 416.012 485.847 418.201 485.847Z" fill="#2950B1"/>
<path d="M364.386 500.101C366.575 500.101 368.35 498.328 368.35 496.14C368.35 493.952 366.575 492.179 364.386 492.179C362.197 492.179 360.422 493.952 360.422 496.14C360.422 498.328 362.197 500.101 364.386 500.101Z" fill="#2950B1"/>
<path d="M382.344 500.101C384.534 500.101 386.309 498.328 386.309 496.14C386.309 493.952 384.534 492.179 382.344 492.179C380.155 492.179 378.38 493.952 378.38 496.14C378.38 498.328 380.155 500.101 382.344 500.101Z" fill="#2950B1"/>
<path d="M400.273 500.101C402.462 500.101 404.237 498.328 404.237 496.14C404.237 493.952 402.462 492.179 400.273 492.179C398.083 492.179 396.309 493.952 396.309 496.14C396.309 498.328 398.083 500.101 400.273 500.101Z" fill="#2950B1"/>
<path d="M418.201 500.101C420.391 500.101 422.166 498.328 422.166 496.14C422.166 493.952 420.391 492.179 418.201 492.179C416.012 492.179 414.237 493.952 414.237 496.14C414.237 498.328 416.012 500.101 418.201 500.101Z" fill="#2950B1"/>
<path d="M195.201 829.909C198.168 829.805 200.489 827.317 200.385 824.352C200.281 821.387 197.792 819.068 194.824 819.172C191.857 819.276 189.537 821.764 189.641 824.729C189.745 827.694 192.234 830.013 195.201 829.909Z" fill="#718AC7"/>
<path d="M195.201 854.188C198.168 854.084 200.489 851.596 200.385 848.631C200.281 845.666 197.791 843.347 194.824 843.451C191.857 843.555 189.536 846.043 189.64 849.008C189.744 851.973 192.234 854.292 195.201 854.188Z" fill="#718AC7"/>
<path d="M195.201 878.497C198.168 878.393 200.489 875.905 200.385 872.94C200.281 869.975 197.792 867.655 194.824 867.759C191.857 867.863 189.537 870.351 189.641 873.316C189.745 876.281 192.234 878.601 195.201 878.497Z" fill="#718AC7"/>
<path d="M195.201 902.775C198.168 902.671 200.489 900.184 200.385 897.219C200.281 894.254 197.791 891.934 194.824 892.038C191.857 892.142 189.536 894.63 189.64 897.595C189.744 900.56 192.234 902.879 195.201 902.775Z" fill="#718AC7"/>
<path d="M175.922 829.898C178.888 829.774 181.191 827.27 181.067 824.306C180.943 821.342 178.437 819.04 175.471 819.164C172.505 819.288 170.201 821.792 170.326 824.756C170.45 827.72 172.955 830.022 175.922 829.898Z" fill="#718AC7"/>
<path d="M175.921 854.175C178.887 854.051 181.19 851.548 181.066 848.583C180.942 845.619 178.436 843.317 175.47 843.442C172.504 843.566 170.2 846.069 170.325 849.033C170.449 851.998 172.954 854.3 175.921 854.175Z" fill="#718AC7"/>
<path d="M175.922 878.484C178.888 878.359 181.192 875.856 181.067 872.892C180.943 869.927 178.437 867.625 175.471 867.75C172.505 867.874 170.201 870.377 170.326 873.342C170.45 876.306 172.955 878.608 175.922 878.484Z" fill="#718AC7"/>
<path d="M175.921 902.761C178.887 902.637 181.191 900.133 181.066 897.169C180.942 894.205 178.436 891.903 175.47 892.027C172.504 892.151 170.2 894.655 170.325 897.619C170.449 900.583 172.954 902.885 175.921 902.761Z" fill="#718AC7"/>
<path d="M156.39 829.909C159.359 829.909 161.766 827.504 161.766 824.537C161.766 821.57 159.359 819.165 156.39 819.165C153.421 819.165 151.015 821.57 151.015 824.537C151.015 827.504 153.421 829.909 156.39 829.909Z" fill="#718AC7"/>
<path d="M156.39 854.187C159.359 854.187 161.766 851.782 161.766 848.815C161.766 845.848 159.359 843.443 156.39 843.443C153.421 843.443 151.015 845.848 151.015 848.815C151.015 851.782 153.421 854.187 156.39 854.187Z" fill="#718AC7"/>
<path d="M156.39 878.495C159.359 878.495 161.766 876.09 161.766 873.123C161.766 870.156 159.359 867.751 156.39 867.751C153.421 867.751 151.015 870.156 151.015 873.123C151.015 876.09 153.421 878.495 156.39 878.495Z" fill="#718AC7"/>
<path d="M156.39 902.773C159.359 902.773 161.766 900.368 161.766 897.402C161.766 894.435 159.359 892.03 156.39 892.03C153.421 892.03 151.015 894.435 151.015 897.402C151.015 900.368 153.421 902.773 156.39 902.773Z" fill="#718AC7"/>
<path d="M142.493 824.798C142.646 821.835 140.367 819.309 137.402 819.157C134.437 819.004 131.909 821.282 131.756 824.245C131.603 827.207 133.883 829.733 136.848 829.886C139.813 830.039 142.34 827.761 142.493 824.798Z" fill="#718AC7"/>
<path d="M142.477 849.093C142.63 846.13 140.35 843.604 137.385 843.451C134.42 843.298 131.892 845.576 131.739 848.539C131.586 851.502 133.866 854.028 136.831 854.181C139.796 854.334 142.324 852.056 142.477 849.093Z" fill="#718AC7"/>
<path d="M142.49 873.389C142.643 870.426 140.364 867.9 137.399 867.747C134.434 867.594 131.906 869.872 131.753 872.835C131.6 875.798 133.88 878.324 136.845 878.477C139.81 878.629 142.337 876.351 142.49 873.389Z" fill="#718AC7"/>
<path d="M142.474 897.683C142.627 894.72 140.348 892.194 137.383 892.041C134.418 891.888 131.89 894.166 131.737 897.129C131.584 900.092 133.864 902.618 136.829 902.771C139.793 902.924 142.321 900.646 142.474 897.683Z" fill="#718AC7"/>
<path d="M117.8 829.909C120.769 829.909 123.176 827.504 123.176 824.537C123.176 821.57 120.769 819.165 117.8 819.165C114.832 819.165 112.425 821.57 112.425 824.537C112.425 827.504 114.832 829.909 117.8 829.909Z" fill="#718AC7"/>
<path d="M117.8 854.187C120.769 854.187 123.176 851.782 123.176 848.815C123.176 845.848 120.769 843.443 117.8 843.443C114.832 843.443 112.425 845.848 112.425 848.815C112.425 851.782 114.832 854.187 117.8 854.187Z" fill="#718AC7"/>
<path d="M117.8 878.495C120.769 878.495 123.176 876.09 123.176 873.123C123.176 870.156 120.769 867.751 117.8 867.751C114.832 867.751 112.425 870.156 112.425 873.123C112.425 876.09 114.832 878.495 117.8 878.495Z" fill="#718AC7"/>
<path d="M117.8 902.773C120.769 902.773 123.176 900.368 123.176 897.402C123.176 894.435 120.769 892.03 117.8 892.03C114.832 892.03 112.425 894.435 112.425 897.402C112.425 900.368 114.832 902.773 117.8 902.773Z" fill="#718AC7"/>
<path d="M98.6411 829.897C101.609 829.829 103.96 827.369 103.891 824.403C103.823 821.438 101.361 819.089 98.3935 819.157C95.4255 819.225 93.075 821.685 93.1434 824.651C93.2118 827.617 95.6732 829.966 98.6411 829.897Z" fill="#718AC7"/>
<path d="M98.6406 854.175C101.609 854.106 103.959 851.647 103.891 848.681C103.822 845.715 101.361 843.366 98.393 843.434C95.425 843.503 93.0745 845.962 93.1429 848.928C93.2113 851.894 95.6727 854.243 98.6406 854.175Z" fill="#718AC7"/>
<path d="M98.6411 878.482C101.609 878.414 103.96 875.954 103.891 872.988C103.823 870.023 101.361 867.674 98.3935 867.742C95.4255 867.81 93.075 870.27 93.1434 873.236C93.2118 876.202 95.6732 878.551 98.6411 878.482Z" fill="#718AC7"/>
<path d="M98.6406 902.76C101.609 902.691 103.959 900.232 103.891 897.266C103.822 894.3 101.361 891.951 98.393 892.019C95.425 892.088 93.0745 894.547 93.1429 897.513C93.2113 900.479 95.6727 902.828 98.6406 902.76Z" fill="#718AC7"/>
<path d="M79.3291 829.895C82.297 829.828 84.6485 827.369 84.5814 824.403C84.5142 821.437 82.0538 819.087 79.0858 819.154C76.1179 819.221 73.7664 821.68 73.8335 824.646C73.9007 827.612 76.3611 829.962 79.3291 829.895Z" fill="#718AC7"/>
<path d="M79.3286 854.172C82.2965 854.104 84.6481 851.646 84.5809 848.68C84.5137 845.714 82.0533 843.364 79.0854 843.431C76.1174 843.498 73.7659 845.957 73.833 848.923C73.9002 851.889 76.3607 854.239 79.3286 854.172Z" fill="#718AC7"/>
<path d="M79.3291 878.479C82.297 878.412 84.6486 875.953 84.5814 872.987C84.5142 870.022 82.0538 867.672 79.0858 867.739C76.1179 867.806 73.7664 870.265 73.8335 873.231C73.9007 876.196 76.3611 878.546 79.3291 878.479Z" fill="#718AC7"/>
<path d="M79.3286 902.756C82.2965 902.689 84.6481 900.23 84.5809 897.264C84.5137 894.298 82.0533 891.949 79.0854 892.016C76.1174 892.083 73.7659 894.542 73.833 897.507C73.9002 900.473 76.3607 902.823 79.3286 902.756Z" fill="#718AC7"/>
<path d="M767.7 787.902H7.79694C7.13626 787.902 6.5957 787.362 6.5957 786.701C6.5957 786.041 7.13626 785.501 7.79694 785.501H767.7C768.36 785.501 768.901 786.041 768.901 786.701C768.901 787.362 768.36 787.902 767.7 787.902Z" fill="#001D64"/>
<path d="M644.75 899.926C646.939 899.926 648.714 898.152 648.714 895.964C648.714 893.776 646.939 892.003 644.75 892.003C642.561 892.003 640.786 893.776 640.786 895.964C640.786 898.152 642.561 899.926 644.75 899.926Z" fill="#2950B1"/>
<path d="M662.709 899.926C664.898 899.926 666.673 898.152 666.673 895.964C666.673 893.776 664.898 892.003 662.709 892.003C660.519 892.003 658.745 893.776 658.745 895.964C658.745 898.152 660.519 899.926 662.709 899.926Z" fill="#2950B1"/>
<path d="M680.637 899.926C682.826 899.926 684.601 898.152 684.601 895.964C684.601 893.776 682.826 892.003 680.637 892.003C678.448 892.003 676.673 893.776 676.673 895.964C676.673 898.152 678.448 899.926 680.637 899.926Z" fill="#2950B1"/>
<path d="M698.566 899.926C700.755 899.926 702.53 898.152 702.53 895.964C702.53 893.776 700.755 892.003 698.566 892.003C696.376 892.003 694.602 893.776 694.602 895.964C694.602 898.152 696.376 899.926 698.566 899.926Z" fill="#2950B1"/>
<path d="M644.75 914.15C646.939 914.15 648.714 912.377 648.714 910.189C648.714 908.001 646.939 906.228 644.75 906.228C642.561 906.228 640.786 908.001 640.786 910.189C640.786 912.377 642.561 914.15 644.75 914.15Z" fill="#2950B1"/>
<path d="M662.709 914.15C664.898 914.15 666.673 912.377 666.673 910.189C666.673 908.001 664.898 906.228 662.709 906.228C660.519 906.228 658.745 908.001 658.745 910.189C658.745 912.377 660.519 914.15 662.709 914.15Z" fill="#2950B1"/>
<path d="M680.637 914.15C682.826 914.15 684.601 912.377 684.601 910.189C684.601 908.001 682.826 906.228 680.637 906.228C678.448 906.228 676.673 908.001 676.673 910.189C676.673 912.377 678.448 914.15 680.637 914.15Z" fill="#2950B1"/>
<path d="M698.566 914.15C700.755 914.15 702.53 912.377 702.53 910.189C702.53 908.001 700.755 906.228 698.566 906.228C696.376 906.228 694.602 908.001 694.602 910.189C694.602 912.377 696.376 914.15 698.566 914.15Z" fill="#2950B1"/>
<path d="M648.63 925.373C649.133 923.244 647.813 921.11 645.683 920.607C643.552 920.104 641.417 921.423 640.914 923.552C640.411 925.681 641.73 927.815 643.861 928.318C645.991 928.82 648.126 927.502 648.63 925.373Z" fill="#2950B1"/>
<path d="M666.629 925.054C666.98 922.894 665.513 920.859 663.351 920.509C661.19 920.158 659.154 921.625 658.803 923.785C658.453 925.944 659.92 927.979 662.081 928.329C664.242 928.68 666.279 927.213 666.629 925.054Z" fill="#2950B1"/>
<path d="M684.57 925.068C684.921 922.908 683.453 920.874 681.292 920.523C679.131 920.173 677.095 921.639 676.744 923.799C676.394 925.958 677.861 927.993 680.022 928.344C682.183 928.694 684.22 927.228 684.57 925.068Z" fill="#2950B1"/>
<path d="M702.511 925.082C702.862 922.923 701.394 920.888 699.233 920.537C697.072 920.187 695.036 921.653 694.685 923.813C694.334 925.972 695.802 928.007 697.963 928.358C700.124 928.708 702.16 927.242 702.511 925.082Z" fill="#2950B1"/>
<path d="M644.75 942.63C646.939 942.63 648.714 940.857 648.714 938.669C648.714 936.481 646.939 934.708 644.75 934.708C642.561 934.708 640.786 936.481 640.786 938.669C640.786 940.857 642.561 942.63 644.75 942.63Z" fill="#2950B1"/>
<path d="M662.709 942.63C664.898 942.63 666.673 940.857 666.673 938.669C666.673 936.481 664.898 934.708 662.709 934.708C660.519 934.708 658.745 936.481 658.745 938.669C658.745 940.857 660.519 942.63 662.709 942.63Z" fill="#2950B1"/>
<path d="M680.637 942.63C682.826 942.63 684.601 940.857 684.601 938.669C684.601 936.481 682.826 934.708 680.637 934.708C678.448 934.708 676.673 936.481 676.673 938.669C676.673 940.857 678.448 942.63 680.637 942.63Z" fill="#2950B1"/>
<path d="M698.566 942.63C700.755 942.63 702.53 940.857 702.53 938.669C702.53 936.481 700.755 934.708 698.566 934.708C696.376 934.708 694.602 936.481 694.602 938.669C694.602 940.857 696.376 942.63 698.566 942.63Z" fill="#2950B1"/>
<path d="M644.75 956.855C646.939 956.855 648.714 955.081 648.714 952.893C648.714 950.706 646.939 948.932 644.75 948.932C642.561 948.932 640.786 950.706 640.786 952.893C640.786 955.081 642.561 956.855 644.75 956.855Z" fill="#2950B1"/>
<path d="M662.709 956.855C664.898 956.855 666.673 955.081 666.673 952.893C666.673 950.706 664.898 948.932 662.709 948.932C660.519 948.932 658.745 950.706 658.745 952.893C658.745 955.081 660.519 956.855 662.709 956.855Z" fill="#2950B1"/>
<path d="M680.637 956.855C682.826 956.855 684.601 955.081 684.601 952.893C684.601 950.706 682.826 948.932 680.637 948.932C678.448 948.932 676.673 950.706 676.673 952.893C676.673 955.081 678.448 956.855 680.637 956.855Z" fill="#2950B1"/>
<path d="M698.566 956.855C700.755 956.855 702.53 955.081 702.53 952.893C702.53 950.706 700.755 948.932 698.566 948.932C696.376 948.932 694.602 950.706 694.602 952.893C694.602 955.081 696.376 956.855 698.566 956.855Z" fill="#2950B1"/>
<path d="M644.75 971.08C646.939 971.08 648.714 969.306 648.714 967.119C648.714 964.931 646.939 963.157 644.75 963.157C642.561 963.157 640.786 964.931 640.786 967.119C640.786 969.306 642.561 971.08 644.75 971.08Z" fill="#2950B1"/>
<path d="M662.709 971.08C664.898 971.08 666.673 969.306 666.673 967.119C666.673 964.931 664.898 963.157 662.709 963.157C660.519 963.157 658.745 964.931 658.745 967.119C658.745 969.306 660.519 971.08 662.709 971.08Z" fill="#2950B1"/>
<path d="M680.637 971.08C682.826 971.08 684.601 969.306 684.601 967.119C684.601 964.931 682.826 963.157 680.637 963.157C678.448 963.157 676.673 964.931 676.673 967.119C676.673 969.306 678.448 971.08 680.637 971.08Z" fill="#2950B1"/>
<path d="M698.566 971.08C700.755 971.08 702.53 969.306 702.53 967.119C702.53 964.931 700.755 963.157 698.566 963.157C696.376 963.157 694.602 964.931 694.602 967.119C694.602 969.306 696.376 971.08 698.566 971.08Z" fill="#2950B1"/>
<path d="M644.75 985.335C646.939 985.335 648.714 983.561 648.714 981.373C648.714 979.186 646.939 977.412 644.75 977.412C642.561 977.412 640.786 979.186 640.786 981.373C640.786 983.561 642.561 985.335 644.75 985.335Z" fill="#2950B1"/>
<path d="M662.709 985.335C664.898 985.335 666.673 983.561 666.673 981.373C666.673 979.186 664.898 977.412 662.709 977.412C660.519 977.412 658.745 979.186 658.745 981.373C658.745 983.561 660.519 985.335 662.709 985.335Z" fill="#2950B1"/>
<path d="M680.637 985.335C682.826 985.335 684.601 983.561 684.601 981.373C684.601 979.186 682.826 977.412 680.637 977.412C678.448 977.412 676.673 979.186 676.673 981.373C676.673 983.561 678.448 985.335 680.637 985.335Z" fill="#2950B1"/>
<path d="M698.566 985.335C700.755 985.335 702.53 983.561 702.53 981.373C702.53 979.186 700.755 977.412 698.566 977.412C696.376 977.412 694.602 979.186 694.602 981.373C694.602 983.561 696.376 985.335 698.566 985.335Z" fill="#2950B1"/>
<path d="M108.746 114.923C110.936 114.923 112.71 113.15 112.71 110.962C112.71 108.774 110.936 107 108.746 107C106.557 107 104.782 108.774 104.782 110.962C104.782 113.15 106.557 114.923 108.746 114.923Z" fill="#2950B1"/>
<path d="M126.705 114.923C128.894 114.923 130.669 113.15 130.669 110.962C130.669 108.774 128.894 107 126.705 107C124.515 107 122.741 108.774 122.741 110.962C122.741 113.15 124.515 114.923 126.705 114.923Z" fill="#2950B1"/>
<path d="M144.633 114.923C146.822 114.923 148.597 113.15 148.597 110.962C148.597 108.774 146.822 107 144.633 107C142.444 107 140.669 108.774 140.669 110.962C140.669 113.15 142.444 114.923 144.633 114.923Z" fill="#2950B1"/>
<path d="M162.562 114.923C164.751 114.923 166.526 113.15 166.526 110.962C166.526 108.774 164.751 107 162.562 107C160.372 107 158.598 108.774 158.598 110.962C158.598 113.15 160.372 114.923 162.562 114.923Z" fill="#2950B1"/>
<path d="M108.746 129.148C110.936 129.148 112.71 127.374 112.71 125.186C112.71 122.999 110.936 121.225 108.746 121.225C106.557 121.225 104.782 122.999 104.782 125.186C104.782 127.374 106.557 129.148 108.746 129.148Z" fill="#2950B1"/>
<path d="M126.705 129.148C128.894 129.148 130.669 127.374 130.669 125.186C130.669 122.999 128.894 121.225 126.705 121.225C124.515 121.225 122.741 122.999 122.741 125.186C122.741 127.374 124.515 129.148 126.705 129.148Z" fill="#2950B1"/>
<path d="M144.633 129.148C146.822 129.148 148.597 127.374 148.597 125.186C148.597 122.999 146.822 121.225 144.633 121.225C142.444 121.225 140.669 122.999 140.669 125.186C140.669 127.374 142.444 129.148 144.633 129.148Z" fill="#2950B1"/>
<path d="M162.562 129.148C164.751 129.148 166.526 127.374 166.526 125.186C166.526 122.999 164.751 121.225 162.562 121.225C160.372 121.225 158.598 122.999 158.598 125.186C158.598 127.374 160.372 129.148 162.562 129.148Z" fill="#2950B1"/>
<path d="M112.626 140.37C113.129 138.241 111.809 136.108 109.679 135.605C107.548 135.102 105.413 136.42 104.91 138.55C104.407 140.679 105.726 142.812 107.857 143.315C109.988 143.818 112.123 142.499 112.626 140.37Z" fill="#2950B1"/>
<path d="M130.625 140.051C130.976 137.892 129.509 135.857 127.348 135.507C125.187 135.156 123.15 136.623 122.8 138.782C122.449 140.942 123.916 142.977 126.077 143.327C128.239 143.677 130.275 142.211 130.625 140.051Z" fill="#2950B1"/>
<path d="M148.566 140.066C148.917 137.906 147.45 135.871 145.288 135.521C143.127 135.17 141.091 136.637 140.741 138.796C140.39 140.956 141.857 142.991 144.018 143.341C146.179 143.692 148.216 142.225 148.566 140.066Z" fill="#2950B1"/>
<path d="M166.507 140.079C166.858 137.92 165.39 135.885 163.229 135.534C161.068 135.184 159.032 136.65 158.681 138.81C158.33 140.97 159.798 143.004 161.959 143.355C164.12 143.705 166.156 142.239 166.507 140.079Z" fill="#2950B1"/>
<path d="M108.746 157.628C110.936 157.628 112.71 155.854 112.71 153.666C112.71 151.479 110.936 149.705 108.746 149.705C106.557 149.705 104.782 151.479 104.782 153.666C104.782 155.854 106.557 157.628 108.746 157.628Z" fill="#2950B1"/>
<path d="M126.705 157.628C128.894 157.628 130.669 155.854 130.669 153.666C130.669 151.479 128.894 149.705 126.705 149.705C124.515 149.705 122.741 151.479 122.741 153.666C122.741 155.854 124.515 157.628 126.705 157.628Z" fill="#2950B1"/>
<path d="M144.633 157.628C146.822 157.628 148.597 155.854 148.597 153.666C148.597 151.479 146.822 149.705 144.633 149.705C142.444 149.705 140.669 151.479 140.669 153.666C140.669 155.854 142.444 157.628 144.633 157.628Z" fill="#2950B1"/>
<path d="M162.562 157.628C164.751 157.628 166.526 155.854 166.526 153.666C166.526 151.479 164.751 149.705 162.562 149.705C160.372 149.705 158.598 151.479 158.598 153.666C158.598 155.854 160.372 157.628 162.562 157.628Z" fill="#2950B1"/>
<path d="M108.746 171.852C110.936 171.852 112.71 170.079 112.71 167.891C112.71 165.703 110.936 163.93 108.746 163.93C106.557 163.93 104.782 165.703 104.782 167.891C104.782 170.079 106.557 171.852 108.746 171.852Z" fill="#2950B1"/>
<path d="M126.705 171.852C128.894 171.852 130.669 170.079 130.669 167.891C130.669 165.703 128.894 163.93 126.705 163.93C124.515 163.93 122.741 165.703 122.741 167.891C122.741 170.079 124.515 171.852 126.705 171.852Z" fill="#2950B1"/>
<path d="M144.633 171.852C146.822 171.852 148.597 170.079 148.597 167.891C148.597 165.703 146.822 163.93 144.633 163.93C142.444 163.93 140.669 165.703 140.669 167.891C140.669 170.079 142.444 171.852 144.633 171.852Z" fill="#2950B1"/>
<path d="M162.562 171.852C164.751 171.852 166.526 170.079 166.526 167.891C166.526 165.703 164.751 163.93 162.562 163.93C160.372 163.93 158.598 165.703 158.598 167.891C158.598 170.079 160.372 171.852 162.562 171.852Z" fill="#2950B1"/>
<path d="M108.746 186.077C110.936 186.077 112.71 184.304 112.71 182.116C112.71 179.928 110.936 178.155 108.746 178.155C106.557 178.155 104.782 179.928 104.782 182.116C104.782 184.304 106.557 186.077 108.746 186.077Z" fill="#2950B1"/>
<path d="M126.705 186.077C128.894 186.077 130.669 184.304 130.669 182.116C130.669 179.928 128.894 178.155 126.705 178.155C124.515 178.155 122.741 179.928 122.741 182.116C122.741 184.304 124.515 186.077 126.705 186.077Z" fill="#2950B1"/>
<path d="M144.633 186.077C146.822 186.077 148.597 184.304 148.597 182.116C148.597 179.928 146.822 178.155 144.633 178.155C142.444 178.155 140.669 179.928 140.669 182.116C140.669 184.304 142.444 186.077 144.633 186.077Z" fill="#2950B1"/>
<path d="M162.562 186.077C164.751 186.077 166.526 184.304 166.526 182.116C166.526 179.928 164.751 178.155 162.562 178.155C160.372 178.155 158.598 179.928 158.598 182.116C158.598 184.304 160.372 186.077 162.562 186.077Z" fill="#2950B1"/>
<path d="M108.746 200.332C110.936 200.332 112.71 198.559 112.71 196.371C112.71 194.183 110.936 192.41 108.746 192.41C106.557 192.41 104.782 194.183 104.782 196.371C104.782 198.559 106.557 200.332 108.746 200.332Z" fill="#2950B1"/>
<path d="M126.705 200.332C128.894 200.332 130.669 198.559 130.669 196.371C130.669 194.183 128.894 192.41 126.705 192.41C124.515 192.41 122.741 194.183 122.741 196.371C122.741 198.559 124.515 200.332 126.705 200.332Z" fill="#2950B1"/>
<path d="M144.633 200.332C146.822 200.332 148.597 198.559 148.597 196.371C148.597 194.183 146.822 192.41 144.633 192.41C142.444 192.41 140.669 194.183 140.669 196.371C140.669 198.559 142.444 200.332 144.633 200.332Z" fill="#2950B1"/>
<path d="M162.562 200.332C164.751 200.332 166.526 198.559 166.526 196.371C166.526 194.183 164.751 192.41 162.562 192.41C160.372 192.41 158.598 194.183 158.598 196.371C158.598 198.559 160.372 200.332 162.562 200.332Z" fill="#2950B1"/>
<path d="M738.528 -351.848C705.832 -358.769 673.017 -363.074 640.302 -363.692C558.519 -365.188 469.84 -324.919 431.163 -238.3C376.807 -116.476 436.571 53.5313 545.509 107.247C589.144 128.749 637.257 132.468 683.601 126.887C731.488 121.101 774.864 101.489 821.424 89.9298C900.09 70.3566 985.173 98.2614 1062.02 71.221C1099.42 58.074 1124.03 26.4044 1129.64 -18.7967C1139.29 -96.2527 1112.46 -181.665 1055 -227.142C1029.27 -247.508 1000.02 -260.962 970.798 -273.403C895.419 -305.583 817.482 -335.153 738.528 -351.848Z" fill="#4F6DB9"/>
<path d="M225.663 1421.43C257.688 1432.6 290.232 1441.5 323.238 1447.16C405.755 1461.27 501.622 1439.9 553.971 1370.14C627.555 1272.03 593.028 1113.89 491.004 1049.83C450.137 1024.19 402.024 1013.4 354.284 1011.04C304.95 1008.61 258.071 1018.99 209.2 1021.82C126.621 1026.64 44.7952 988.903 -37.0785 1000.55C-76.9284 1006.2 -106.665 1030.06 -119.235 1068.75C-140.811 1135.03 -126.704 1213.97 -75.5005 1262.77C-52.5815 1284.62 -25.0338 1300.97 2.62952 1316.43C73.9854 1356.39 148.327 1394.46 225.663 1421.43Z" fill="#4F6DB9"/>
<g clipPath="url(#clip1_1_2818)">
<path d="M149.218 401.266C149.218 401.266 168.523 403.002 164.189 378.989C138.688 383.371 149.218 401.266 149.218 401.266Z" fill="#C0CFF4" stroke="#C0CFF4" strokeWidth="1.5" stroke-miterlimit="10"/>
<path d="M141.7 409.444C141.7 409.444 149.846 399.184 134.702 392.72C127.704 408.772 141.7 409.444 141.7 409.444Z" fill="#C0CFF4" stroke="#C0CFF4" strokeWidth="1.5" stroke-miterlimit="10"/>
<path d="M132.492 421.743C132.492 421.743 139.511 410.681 123.782 405.843C118.517 422.524 132.492 421.743 132.492 421.743Z" fill="#C0CFF4" stroke="#C0CFF4" strokeWidth="1.5" stroke-miterlimit="10"/>
<path d="M127.639 434.216C127.639 434.216 130.672 421.461 114.206 422.047C114.682 439.552 127.639 434.216 127.639 434.216Z" fill="#C0CFF4" stroke="#C0CFF4" strokeWidth="1.5" stroke-miterlimit="10"/>
<path d="M145.188 410.529C145.188 410.529 151.774 421.852 163.301 410.073C150.908 397.73 145.188 410.529 145.188 410.529Z" fill="#C0CFF4" stroke="#C0CFF4" strokeWidth="1.5" stroke-miterlimit="10"/>
<path d="M137.605 424.802C137.605 424.802 144.191 436.125 155.718 424.368C143.347 411.982 137.605 424.802 137.605 424.802Z" fill="#C0CFF4" stroke="#C0CFF4" strokeWidth="1.5" stroke-miterlimit="10"/>
<path d="M117.434 464.389C117.434 464.389 122.959 452.502 106.709 449.769C103.676 467.014 117.434 464.389 117.434 464.389Z" fill="#C0CFF4" stroke="#C0CFF4" strokeWidth="1.5" stroke-miterlimit="10"/>
<path d="M123.847 464.671C123.847 464.671 130.433 475.994 141.96 464.237C129.567 451.851 123.847 464.671 123.847 464.671Z" fill="#C0CFF4" stroke="#C0CFF4" strokeWidth="1.5" stroke-miterlimit="10"/>
<path d="M113.75 478.402C113.75 478.402 119.275 466.515 103.026 463.782C99.9924 481.027 113.75 478.402 113.75 478.402Z" fill="#C0CFF4" stroke="#C0CFF4" strokeWidth="1.5" stroke-miterlimit="10"/>
<path d="M120.164 478.684C120.164 478.684 126.75 490.007 138.276 478.229C125.883 465.886 120.164 478.684 120.164 478.684Z" fill="#C0CFF4" stroke="#C0CFF4" strokeWidth="1.5" stroke-miterlimit="10"/>
<path d="M132.383 435.691C132.383 435.691 135.59 448.402 149.911 440.268C141.418 424.975 132.383 435.691 132.383 435.691Z" fill="#C0CFF4" stroke="#C0CFF4" strokeWidth="1.5" stroke-miterlimit="10"/>
<path d="M123.089 447.86C123.089 447.86 126.122 435.105 109.656 435.691C110.132 453.175 123.089 447.86 123.089 447.86Z" fill="#C0CFF4" stroke="#C0CFF4" strokeWidth="1.5" stroke-miterlimit="10"/>
<path d="M127.812 449.335C127.812 449.335 131.019 462.047 145.34 453.912C136.847 438.598 127.812 449.335 127.812 449.335Z" fill="#C0CFF4" stroke="#C0CFF4" strokeWidth="1.5" stroke-miterlimit="10"/>
<path d="M110.565 507.621C110.565 507.621 113.945 494.953 97.479 495.083C97.4574 512.588 110.565 507.621 110.565 507.621Z" fill="#C0CFF4" stroke="#C0CFF4" strokeWidth="1.5" stroke-miterlimit="10"/>
<path d="M116.936 506.775C116.936 506.775 125.385 516.796 134.702 503.196C120.359 493.174 116.936 506.775 116.936 506.775Z" fill="#C0CFF4" stroke="#C0CFF4" strokeWidth="1.5" stroke-miterlimit="10"/>
<path d="M109.374 522.068C109.374 522.068 112.754 509.4 96.2876 509.53C96.266 527.035 109.374 522.068 109.374 522.068Z" fill="#C0CFF4" stroke="#C0CFF4" strokeWidth="1.5" stroke-miterlimit="10"/>
<path d="M115.744 521.222C115.744 521.222 124.193 531.243 133.51 517.642C119.145 507.621 115.744 521.222 115.744 521.222Z" fill="#C0CFF4" stroke="#C0CFF4" strokeWidth="1.5" stroke-miterlimit="10"/>
<path d="M113.274 490.354C113.274 490.354 114.054 477.274 97.9341 480.701C101.422 497.838 113.274 490.354 113.274 490.354Z" fill="#C0CFF4" stroke="#C0CFF4" strokeWidth="1.5" stroke-miterlimit="10"/>
<path d="M118.192 490.983C118.192 490.983 123.543 502.935 136.261 492.458C125.212 478.858 118.192 490.983 118.192 490.983Z" fill="#C0CFF4" stroke="#C0CFF4" strokeWidth="1.5" stroke-miterlimit="10"/>
<path d="M148.806 402.112C148.806 402.112 67.2765 502.567 153.984 668.986" stroke="#142D6C" strokeWidth="1.5" stroke-miterlimit="10" strokeLinecap="round" strokeLinejoin="round"/>
<path d="M534.312 335.236L508.767 332.091L507.792 340.052L484.09 350.117L477.698 345.279L462.207 365.865L468.598 370.68L465.457 396.277L458.09 399.4L468.143 423.131L475.532 419.986L496.071 435.496L495.096 443.456L520.64 446.602L521.615 438.641L545.296 428.576L551.688 433.413L567.179 412.828L560.788 407.99L563.929 382.416L571.317 379.27L561.264 355.54L553.898 358.663L533.337 343.154L534.312 335.236ZM535.135 391.873C533.748 403.175 523.457 411.222 512.191 409.834C500.903 408.446 492.864 398.142 494.251 386.841C495.638 375.539 505.929 367.492 517.217 368.88C528.505 370.29 536.543 380.572 535.135 391.873Z" fill="#C0CFF4"/>
<path d="M210.706 427.123L189.625 425.105L183.147 492.957L204.228 494.975L232.502 556.97L220.218 574.236L275.683 613.78L287.946 596.514L355.718 603L364.514 622.284L426.457 593.954L417.661 574.67L457.158 519.161L478.218 521.178L484.696 453.326L463.615 451.309L435.341 389.314L447.625 372.047L392.182 332.503L379.897 349.77L312.125 343.284L303.329 324L241.407 352.308L250.182 371.592L210.706 427.123Z" fill="#C0CFF4"/>
<path d="M369.585 514.357C392.321 494.636 394.784 460.195 375.086 437.432C355.388 414.669 320.989 412.203 298.253 431.925C275.517 451.646 273.054 486.086 292.751 508.849C312.449 531.612 346.849 534.078 369.585 514.357Z" fill="white"/>
<path d="M714.834 552.002C698.389 554.605 676.203 549.313 669.01 572.046C664.048 587.729 671.696 604.8 652.132 611.785C644.375 614.562 636.467 614.171 630.726 620.939C625.742 626.839 624.876 635.255 624.161 642.631C623.532 648.965 624.832 657.251 622.709 663.325C619.243 673.259 610.489 673.216 601.931 676.882C593.807 680.374 586.288 686.036 583.147 694.713C578.987 706.209 585.877 716.318 585.053 727.402C585.053 727.402 589.82 771.285 633.824 754.712C644.224 750.786 655.035 748.768 662.64 739.202C668.381 731.979 669.27 722.587 667.97 713.845C666.605 704.647 661.99 697.185 668.62 689.029C672.671 684.019 680.406 680.808 685.476 676.947C691.369 672.479 698.086 667.316 700.491 659.984C703.264 651.546 698.779 645.017 697.067 636.926C692.756 616.557 711.28 614.149 722.048 601.698C737.648 583.651 721.507 567.512 715.115 552.133L714.834 552.002Z" fill="white" stroke="#0B4AEB" strokeWidth="1.5" stroke-miterlimit="10" strokeLinecap="round" strokeLinejoin="round"/>
<path d="M695.572 586.861L596.103 764.972" stroke="#142D6C" strokeWidth="1.5" stroke-miterlimit="10" strokeLinecap="round" strokeLinejoin="round"/>
<path d="M649.293 628.77L654.255 660.852" stroke="#142D6C" strokeWidth="1.5" stroke-miterlimit="10" strokeLinecap="round" strokeLinejoin="round"/>
<path d="M618.744 724.452L647.582 720.309" stroke="#142D6C" strokeWidth="1.5" stroke-miterlimit="10" strokeLinecap="round" strokeLinejoin="round"/>
<path d="M666.713 638.531L688.921 629.876" stroke="#142D6C" strokeWidth="1.5" stroke-miterlimit="10" strokeLinecap="round" strokeLinejoin="round"/>
<path d="M477.893 785.905H509.569" stroke="#142D6C" strokeWidth="1.5" stroke-miterlimit="10" strokeLinecap="round" strokeLinejoin="round"/>
<path d="M88.4229 785.905H159.574" stroke="#142D6C" strokeWidth="1.5" stroke-miterlimit="10" strokeLinecap="round" strokeLinejoin="round"/>
<path d="M709.027 789.592L686.212 773.432V754.668H709.027V789.592Z" fill="#142D6C"/>
<path d="M635.102 736.664V785.883H533.9C513.534 785.883 497.002 769.354 497.002 748.942V664.756H557.169V736.642H635.102V736.664Z" fill="white" stroke="#142D6C" strokeWidth="1.5" stroke-miterlimit="10" strokeLinecap="round" strokeLinejoin="round"/>
<path d="M548.134 664.799H608.301V736.686H686.213V785.904H585.01C564.644 785.904 548.113 769.375 548.113 748.963V698.226" fill="white"/>
<path d="M548.134 664.799H608.301V736.686H686.213V785.904H585.01C564.644 785.904 548.113 769.375 548.113 748.963V698.226" stroke="#142D6C" strokeWidth="1.5" stroke-miterlimit="10" strokeLinecap="round" strokeLinejoin="round"/>
<path d="M647.452 555.017C644.072 546.08 621.626 494.259 550.431 494.259C549.434 494.259 548.459 494.28 547.506 494.302C500.187 495.43 462.727 534.887 462.727 582.284V628.704H480.146V677.229H622.233V624.236C663.485 613.824 654.147 572.761 647.452 555.017Z" fill="#FEE500"/>
<path d="M583.429 483.738L527.682 491.309V452.459C527.682 438.641 544.646 427.426 558.448 427.426C572.249 427.426 583.45 438.619 583.45 452.459V483.738H583.429Z" fill="#18181B"/>
<path d="M548.351 507.556C541.18 507.556 535.373 501.742 535.373 494.562V452.329H561.329V494.562C561.329 501.742 555.501 507.556 548.351 507.556Z" fill="white" stroke="#142D6C" strokeWidth="1.5" stroke-miterlimit="10" strokeLinecap="round" strokeLinejoin="round"/>
<path d="M570.429 454.454C570.754 458.424 567.786 461.916 563.821 462.22C563.214 462.263 562.608 462.242 562.023 462.133C561.741 464.78 560.918 467.274 559.639 469.508C556.606 474.866 551.038 478.684 544.451 479.205C533.857 480.051 524.605 472.155 523.76 461.547C522.915 450.94 530.802 441.678 541.396 440.81C548.568 440.224 555.154 443.673 558.881 449.27C559.943 448.446 561.243 447.903 562.694 447.795C566.637 447.513 570.126 450.485 570.429 454.454Z" fill="white" stroke="#142D6C" strokeWidth="1.5" stroke-miterlimit="10" strokeLinecap="round" strokeLinejoin="round"/>
<path d="M519.6 453.999L558.881 449.313L552.468 429.444C552.273 428.598 551.211 428.121 550.063 428.359L536.348 431.374C524.908 433.891 517.26 443.392 519.275 452.611L519.6 453.999Z" fill="#18181B"/>
<path d="M559.748 458.099C559.748 458.099 559.683 454.454 563.301 454.65" stroke="#0B4AEB" strokeWidth="1.5" stroke-miterlimit="10" strokeLinecap="round" strokeLinejoin="round"/>
<path d="M585.01 785.905C564.644 785.905 548.113 769.376 548.113 748.964V698.227" stroke="#142D6C" strokeWidth="1.5" stroke-miterlimit="10" strokeLinecap="round" strokeLinejoin="round"/>
<path d="M252.89 764.394C253.032 764.729 253.15 765.014 253.245 765.244L228.044 774.212C228.009 774.203 227.971 774.193 227.928 774.182C227.707 774.125 227.376 774.039 226.942 773.92C226.074 773.683 224.793 773.316 223.147 772.801C219.855 771.771 215.104 770.148 209.282 767.781C197.637 763.046 181.714 755.335 164.615 743.432C130.604 719.757 91.9376 679.501 73.0219 613.077C135.632 619.66 180.672 657.631 210.128 694.134C224.938 712.488 235.794 730.452 242.946 743.828C246.522 750.516 249.172 756.054 250.926 759.919C251.803 761.851 252.457 763.365 252.89 764.394Z" fill="#C0CFF4" stroke="#142D6C" strokeWidth="1.5"/>
<path d="M99.8628 676.318L155.566 689.29" stroke="#142D6C" strokeWidth="1.5" stroke-miterlimit="10" strokeLinecap="round" strokeLinejoin="round"/>
<path d="M178.034 710.005L168.761 652.045" stroke="#142D6C" strokeWidth="1.5" stroke-miterlimit="10" strokeLinecap="round" strokeLinejoin="round"/>
<path d="M186.115 666.969L194.977 725.645" stroke="#142D6C" strokeWidth="1.5" stroke-miterlimit="10" strokeLinecap="round" strokeLinejoin="round"/>
<path d="M72 612.219L243.617 770.504" stroke="#142D6C" strokeWidth="1.5" stroke-miterlimit="10" strokeLinecap="round" strokeLinejoin="round"/>
<path d="M340.14 712.305H215.582V746.491H340.14V712.305Z" fill="white" stroke="#142D6C" strokeWidth="1.5" stroke-miterlimit="10" strokeLinecap="round" strokeLinejoin="round"/>
<path d="M310.024 785.905H190.969C176.929 785.905 165.533 774.495 165.533 760.439C165.533 746.383 176.929 734.973 190.969 734.973L310.024 747.012V785.905Z" fill="white" stroke="#142D6C" strokeWidth="1.5" stroke-miterlimit="10" strokeLinecap="round" strokeLinejoin="round"/>
<path d="M215.776 792L238.591 775.84V757.077H215.776V792Z" fill="#142D6C"/>
<path d="M237.789 785.905H356.844C370.884 785.905 382.28 774.495 382.28 760.439C382.28 746.383 370.884 734.973 356.844 734.973L237.789 747.012V785.905Z" fill="white" stroke="#142D6C" strokeWidth="1.5" stroke-miterlimit="10" strokeLinecap="round" strokeLinejoin="round"/>
<path d="M255.425 506.602C255.425 506.602 244.896 488.858 255.425 482.242C265.955 475.626 296.699 468.706 296.699 468.706L293.081 500.398L255.425 506.602Z" fill="#18181B"/>
<path d="M362.369 633.824C362.369 586.428 324.909 546.97 277.59 545.842C276.615 545.821 275.64 545.799 274.665 545.799C203.47 545.799 181.002 597.62 177.644 606.557C170.949 624.301 161.633 671.112 202.885 682.782V724.474H344.971V681.98L362.391 680.266V633.824H362.369Z" fill="#183378"/>
<path d="M271.198 558.64C278.37 558.64 284.176 552.827 284.176 545.647V503.413H258.22V545.647C258.22 552.827 264.027 558.64 271.198 558.64Z" fill="white" stroke="#142D6C" strokeWidth="1.5" stroke-miterlimit="10" strokeLinecap="round" strokeLinejoin="round"/>
<path d="M248.449 511.46C249.121 515.387 252.847 518.033 256.769 517.36C257.375 517.252 257.96 517.078 258.502 516.84C259.434 519.334 260.842 521.569 262.619 523.412C266.887 527.859 273.192 530.202 279.735 529.074C290.2 527.295 297.241 517.36 295.464 506.862C293.688 496.385 283.765 489.335 273.278 491.113C266.172 492.328 260.647 497.274 258.415 503.608C257.18 503.066 255.794 502.87 254.364 503.109C250.421 503.803 247.777 507.534 248.449 511.46Z" fill="white" stroke="#142D6C" strokeWidth="1.5" stroke-miterlimit="10" strokeLinecap="round" strokeLinejoin="round"/>
<path d="M259.715 512.371C259.715 512.371 258.87 508.814 255.425 509.899" stroke="#142D6C" strokeWidth="1.5" stroke-miterlimit="10" strokeLinecap="round" strokeLinejoin="round"/>
<path d="M356.844 734.973L237.789 747.012V785.905" stroke="#142D6C" strokeWidth="1.5" stroke-miterlimit="10" strokeLinecap="round" strokeLinejoin="round"/>
<path d="M165.533 760.439C165.533 746.383 176.929 734.973 190.969 734.973L230.488 738.964" stroke="#142D6C" strokeWidth="1.5" stroke-miterlimit="10" strokeLinecap="round" strokeLinejoin="round"/>
<path d="M499.555 756.629C540.575 715.561 540.575 648.977 499.555 607.909C458.536 566.841 392.031 566.841 351.012 607.909C309.992 648.977 309.992 715.561 351.012 756.629C392.031 797.697 458.536 797.697 499.555 756.629Z" fill="white" stroke="#142D6C" strokeWidth="1.5" stroke-miterlimit="10" strokeLinecap="round" strokeLinejoin="round"/>
<path d="M508.648 695.818C516.118 649.734 484.859 606.312 438.83 598.833C392.801 591.354 349.431 622.649 341.96 668.733C334.49 714.817 365.748 758.239 411.778 765.718C457.807 773.197 501.177 741.902 508.648 695.818Z" fill="white" stroke="#142D6C" strokeWidth="1.5" stroke-miterlimit="10" strokeLinecap="round" strokeLinejoin="round"/>
<path d="M391.315 670.244V693.606C391.315 712.803 406.763 728.378 425.938 728.378C445.112 728.378 460.669 712.803 460.669 693.606V670.244H391.315ZM430.098 705.97H421.8V688.27H430.098V705.97Z" fill="#142D6C"/>
<path d="M447.626 663.563V659.029C447.626 647.056 437.941 637.359 425.981 637.359C414.022 637.359 404.337 647.056 404.337 659.029V663.563" stroke="#142D6C" strokeWidth="1.5" stroke-miterlimit="10"/>
<path d="M299.624 653.823L326.425 649.16L326.62 655.624L337.67 656.123L337.237 683.107L296.699 683.498L299.624 653.823Z" fill="white" stroke="#142D6C" strokeWidth="1.5" stroke-miterlimit="10" strokeLinecap="round" strokeLinejoin="round"/>
<path d="M337.54 663.65L324.865 663.151" stroke="#142D6C" strokeWidth="1.5" stroke-miterlimit="10" strokeLinecap="round" strokeLinejoin="round"/>
<path d="M336.955 670.461L324.302 669.94" stroke="#142D6C" strokeWidth="1.5" stroke-miterlimit="10" strokeLinecap="round" strokeLinejoin="round"/>
<path d="M336.89 677.229L324.237 676.73" stroke="#142D6C" strokeWidth="1.5" stroke-miterlimit="10" strokeLinecap="round" strokeLinejoin="round"/>
<path d="M293.254 683.997C280.06 684.886 251.46 686.426 220.5 685.667" stroke="white" strokeWidth="1.5" stroke-miterlimit="10" strokeLinecap="round" strokeLinejoin="round"/>
<path d="M217.575 624.8C217.575 624.8 215.235 646.275 225.829 646.643C236.424 647.012 301.942 648.596 301.942 648.596" stroke="white" strokeWidth="1.5" stroke-miterlimit="10" strokeLinecap="round" strokeLinejoin="round"/>
<path d="M542.112 636.296C551.775 635.537 582.129 632.674 617.012 626.361" stroke="white" strokeWidth="1.5" stroke-miterlimit="10" strokeLinecap="round" strokeLinejoin="round"/>
<path d="M609.71 566.948C609.71 566.948 615.321 587.794 604.9 589.811C594.478 591.807 531.56 600.548 531.56 600.548" stroke="white" strokeWidth="1.5" stroke-miterlimit="10" strokeLinecap="round" strokeLinejoin="round"/>
<path d="M532.73 605.863L506.688 608.509V614.171L495.854 616.362L500.058 640.57L540.162 634.735L532.73 605.863Z" fill="white" stroke="#0B4AEB" strokeWidth="1.5" stroke-miterlimit="10" strokeLinecap="round" strokeLinejoin="round"/>
<path d="M497.133 623.78L509.569 621.329" stroke="#0B4AEB" strokeWidth="1.5" stroke-miterlimit="10" strokeLinecap="round" strokeLinejoin="round"/>
<path d="M498.671 629.94L511.107 627.489" stroke="#0B4AEB" strokeWidth="1.5" stroke-miterlimit="10" strokeLinecap="round" strokeLinejoin="round"/>
<path d="M499.581 635.32L512.017 632.869" stroke="#0B4AEB" strokeWidth="1.5" stroke-miterlimit="10" strokeLinecap="round" strokeLinejoin="round"/>
<path d="M660.928 472.936C689.167 472.936 712.06 450.016 712.06 421.743C712.06 393.47 689.167 370.551 660.928 370.551C632.689 370.551 609.796 393.47 609.796 421.743C609.796 450.016 632.689 472.936 660.928 472.936Z" fill="white" stroke="#142D6C" strokeWidth="1.5" stroke-miterlimit="10" strokeLinecap="round" strokeLinejoin="round" stroke-dasharray="6.22 6.22"/>
<path d="M676.193 422.036L676.192 422.037C671.545 426.69 664.026 426.69 659.379 422.037C654.731 417.384 654.731 409.855 659.379 405.202C664.026 400.549 671.545 400.549 676.192 405.202C680.84 409.855 680.838 417.406 676.193 422.036Z" fill="#142D6C" stroke="#142D6C" strokeWidth="1.5"/>
<path d="M667.796 413.63L645.805 435.626L652.694 442.502" stroke="#142D6C" strokeWidth="1.5" stroke-miterlimit="10"/>
<path d="M657.05 434.498L652.001 429.444" stroke="#142D6C" strokeWidth="1.5" stroke-miterlimit="10"/>
<path d="M672.01 417.851C669.683 420.181 665.911 420.184 663.559 417.85C661.232 415.519 661.229 411.742 663.561 409.387C665.888 407.059 669.658 407.055 672.01 409.388C674.341 411.744 674.337 415.521 672.01 417.851Z" fill="white" stroke="#142D6C" strokeWidth="1.5"/>
<path d="M666.713 484.194C666.713 484.194 677.806 518.337 643.465 530.983" stroke="#142D6C" strokeWidth="1.5" stroke-miterlimit="10" strokeLinecap="round" strokeLinejoin="round" stroke-dasharray="6.22 6.22"/>
</g>
</g>
<defs>
<clipPath id="clip0_1_2818">
<rect width="800" height="1080" fill="white"/>
</clipPath>
<clipPath id="clip1_1_2818">
<rect width="658" height="468" fill="white" transform="translate(71 324)"/>
</clipPath>
</defs>
</svg>
