<svg width="800" height="1080" viewBox="0 0 800 1080" fill="none" xmlns="http://www.w3.org/2000/svg">
<g clipPath="url(#clip0_1_4780)">
<rect width="800" height="1080" fill="#F8F8FC"/>
<path d="M769.7 841.902H9.79694C9.13626 841.902 8.5957 841.362 8.5957 840.701C8.5957 840.041 9.13626 839.501 9.79694 839.501H769.7C770.36 839.501 770.901 840.041 770.901 840.701C770.901 841.362 770.36 841.902 769.7 841.902Z" fill="#001D64"/>
<path d="M41.828 935.49C41.828 933.3 40.0544 931.526 37.8666 931.526C35.6788 931.526 33.9053 933.3 33.9053 935.49C33.9053 937.679 35.6788 939.454 37.8666 939.454C40.0544 939.454 41.828 937.679 41.828 935.49Z" fill="#2950B1"/>
<path d="M41.828 917.531C41.828 915.342 40.0544 913.567 37.8666 913.567C35.6788 913.567 33.9053 915.342 33.9053 917.531C33.9053 919.721 35.6788 921.495 37.8666 921.495C40.0544 921.495 41.828 919.721 41.828 917.531Z" fill="#2950B1"/>
<path d="M41.828 899.603C41.828 897.414 40.0544 895.639 37.8666 895.639C35.6788 895.639 33.9053 897.414 33.9053 899.603C33.9053 901.792 35.6788 903.567 37.8666 903.567C40.0544 903.567 41.828 901.792 41.828 899.603Z" fill="#2950B1"/>
<path d="M41.828 881.674C41.828 879.485 40.0544 877.71 37.8666 877.71C35.6788 877.71 33.9053 879.485 33.9053 881.674C33.9053 883.864 35.6788 885.638 37.8666 885.638C40.0544 885.638 41.828 883.864 41.828 881.674Z" fill="#2950B1"/>
<path d="M56.0526 935.49C56.0526 933.3 54.279 931.526 52.0912 931.526C49.9034 931.526 48.1299 933.3 48.1299 935.49C48.1299 937.679 49.9034 939.454 52.0912 939.454C54.279 939.454 56.0526 937.679 56.0526 935.49Z" fill="#2950B1"/>
<path d="M56.0526 917.531C56.0526 915.342 54.279 913.567 52.0912 913.567C49.9034 913.567 48.1299 915.342 48.1299 917.531C48.1299 919.721 49.9034 921.495 52.0912 921.495C54.279 921.495 56.0526 919.721 56.0526 917.531Z" fill="#2950B1"/>
<path d="M56.0526 899.603C56.0526 897.414 54.279 895.639 52.0912 895.639C49.9034 895.639 48.1299 897.414 48.1299 899.603C48.1299 901.792 49.9034 903.567 52.0912 903.567C54.279 903.567 56.0526 901.792 56.0526 899.603Z" fill="#2950B1"/>
<path d="M56.0526 881.674C56.0526 879.485 54.279 877.71 52.0912 877.71C49.9034 877.71 48.1299 879.485 48.1299 881.674C48.1299 883.864 49.9034 885.638 52.0912 885.638C54.279 885.638 56.0526 883.864 56.0526 881.674Z" fill="#2950B1"/>
<path d="M67.2751 931.611C65.1459 931.108 63.0123 932.427 62.5095 934.558C62.0068 936.688 63.3253 938.823 65.4544 939.326C67.5836 939.829 69.7171 938.51 70.2199 936.379C70.7226 934.249 69.4042 932.114 67.2751 931.611Z" fill="#2950B1"/>
<path d="M66.9562 913.611C64.7966 913.26 62.7618 914.728 62.4113 916.889C62.0608 919.05 63.5273 921.086 65.6869 921.437C67.8465 921.787 69.8813 920.32 70.2318 918.159C70.5823 915.998 69.1157 913.962 66.9562 913.611Z" fill="#2950B1"/>
<path d="M66.9703 895.67C64.8107 895.319 62.7759 896.787 62.4254 898.948C62.0749 901.109 63.5415 903.145 65.7011 903.496C67.8607 903.847 69.8955 902.379 70.2459 900.218C70.5964 898.057 69.1299 896.021 66.9703 895.67Z" fill="#2950B1"/>
<path d="M66.9844 877.729C64.8249 877.378 62.7901 878.846 62.4396 881.007C62.0891 883.168 63.5557 885.204 65.7152 885.555C67.8748 885.906 69.9096 884.438 70.2601 882.277C70.6106 880.116 69.144 878.08 66.9844 877.729Z" fill="#2950B1"/>
<path d="M84.5325 935.49C84.5325 933.3 82.759 931.526 80.5712 931.526C78.3834 931.526 76.6099 933.3 76.6099 935.49C76.6099 937.679 78.3834 939.454 80.5712 939.454C82.759 939.454 84.5325 937.679 84.5325 935.49Z" fill="#2950B1"/>
<path d="M84.5325 917.531C84.5325 915.342 82.759 913.567 80.5712 913.567C78.3834 913.567 76.6099 915.342 76.6099 917.531C76.6099 919.721 78.3834 921.495 80.5712 921.495C82.759 921.495 84.5325 919.721 84.5325 917.531Z" fill="#2950B1"/>
<path d="M84.5325 899.603C84.5325 897.414 82.759 895.639 80.5712 895.639C78.3834 895.639 76.6099 897.414 76.6099 899.603C76.6099 901.792 78.3834 903.567 80.5712 903.567C82.759 903.567 84.5325 901.792 84.5325 899.603Z" fill="#2950B1"/>
<path d="M84.5325 881.674C84.5325 879.485 82.759 877.71 80.5712 877.71C78.3834 877.71 76.6099 879.485 76.6099 881.674C76.6099 883.864 78.3834 885.638 80.5712 885.638C82.759 885.638 84.5325 883.864 84.5325 881.674Z" fill="#2950B1"/>
<path d="M98.7572 935.49C98.7572 933.3 96.9836 931.526 94.7958 931.526C92.608 931.526 90.8345 933.3 90.8345 935.49C90.8345 937.679 92.608 939.454 94.7958 939.454C96.9836 939.454 98.7572 937.679 98.7572 935.49Z" fill="#2950B1"/>
<path d="M98.7572 917.531C98.7572 915.342 96.9836 913.567 94.7958 913.567C92.608 913.567 90.8345 915.342 90.8345 917.531C90.8345 919.721 92.608 921.495 94.7958 921.495C96.9836 921.495 98.7572 919.721 98.7572 917.531Z" fill="#2950B1"/>
<path d="M98.7572 899.603C98.7572 897.414 96.9836 895.639 94.7958 895.639C92.608 895.639 90.8345 897.414 90.8345 899.603C90.8345 901.792 92.608 903.567 94.7958 903.567C96.9836 903.567 98.7572 901.792 98.7572 899.603Z" fill="#2950B1"/>
<path d="M98.7572 881.674C98.7572 879.485 96.9836 877.71 94.7958 877.71C92.608 877.71 90.8345 879.485 90.8345 881.674C90.8345 883.864 92.608 885.638 94.7958 885.638C96.9836 885.638 98.7572 883.864 98.7572 881.674Z" fill="#2950B1"/>
<path d="M112.982 935.49C112.982 933.3 111.209 931.526 109.021 931.526C106.833 931.526 105.06 933.3 105.06 935.49C105.06 937.679 106.833 939.454 109.021 939.454C111.209 939.454 112.982 937.679 112.982 935.49Z" fill="#2950B1"/>
<path d="M112.982 917.531C112.982 915.342 111.209 913.567 109.021 913.567C106.833 913.567 105.06 915.342 105.06 917.531C105.06 919.721 106.833 921.495 109.021 921.495C111.209 921.495 112.982 919.721 112.982 917.531Z" fill="#2950B1"/>
<path d="M112.982 899.603C112.982 897.414 111.209 895.639 109.021 895.639C106.833 895.639 105.06 897.414 105.06 899.603C105.06 901.792 106.833 903.567 109.021 903.567C111.209 903.567 112.982 901.792 112.982 899.603Z" fill="#2950B1"/>
<path d="M112.982 881.674C112.982 879.485 111.209 877.71 109.021 877.71C106.833 877.71 105.06 879.485 105.06 881.674C105.06 883.864 106.833 885.638 109.021 885.638C111.209 885.638 112.982 883.864 112.982 881.674Z" fill="#2950B1"/>
<path d="M127.237 935.49C127.237 933.3 125.464 931.526 123.276 931.526C121.088 931.526 119.314 933.3 119.314 935.49C119.314 937.679 121.088 939.454 123.276 939.454C125.464 939.454 127.237 937.679 127.237 935.49Z" fill="#2950B1"/>
<path d="M127.237 917.531C127.237 915.342 125.464 913.567 123.276 913.567C121.088 913.567 119.314 915.342 119.314 917.531C119.314 919.721 121.088 921.495 123.276 921.495C125.464 921.495 127.237 919.721 127.237 917.531Z" fill="#2950B1"/>
<path d="M127.237 899.603C127.237 897.414 125.464 895.639 123.276 895.639C121.088 895.639 119.314 897.414 119.314 899.603C119.314 901.792 121.088 903.567 123.276 903.567C125.464 903.567 127.237 901.792 127.237 899.603Z" fill="#2950B1"/>
<path d="M127.237 881.674C127.237 879.485 125.464 877.71 123.276 877.71C121.088 877.71 119.314 879.485 119.314 881.674C119.314 883.864 121.088 885.638 123.276 885.638C125.464 885.638 127.237 883.864 127.237 881.674Z" fill="#2950B1"/>
<path d="M724.747 186.923C726.936 186.923 728.711 185.15 728.711 182.962C728.711 180.774 726.936 179 724.747 179C722.557 179 720.783 180.774 720.783 182.962C720.783 185.15 722.557 186.923 724.747 186.923Z" fill="#2950B1"/>
<path d="M742.705 186.923C744.895 186.923 746.669 185.15 746.669 182.962C746.669 180.774 744.895 179 742.705 179C740.516 179 738.741 180.774 738.741 182.962C738.741 185.15 740.516 186.923 742.705 186.923Z" fill="#2950B1"/>
<path d="M760.633 186.923C762.823 186.923 764.598 185.15 764.598 182.962C764.598 180.774 762.823 179 760.633 179C758.444 179 756.669 180.774 756.669 182.962C756.669 185.15 758.444 186.923 760.633 186.923Z" fill="#2950B1"/>
<path d="M778.562 186.923C780.752 186.923 782.526 185.15 782.526 182.962C782.526 180.774 780.752 179 778.562 179C776.373 179 774.598 180.774 774.598 182.962C774.598 185.15 776.373 186.923 778.562 186.923Z" fill="#2950B1"/>
<path d="M724.747 201.148C726.936 201.148 728.711 199.374 728.711 197.186C728.711 194.999 726.936 193.225 724.747 193.225C722.557 193.225 720.783 194.999 720.783 197.186C720.783 199.374 722.557 201.148 724.747 201.148Z" fill="#2950B1"/>
<path d="M742.705 201.148C744.895 201.148 746.669 199.374 746.669 197.186C746.669 194.999 744.895 193.225 742.705 193.225C740.516 193.225 738.741 194.999 738.741 197.186C738.741 199.374 740.516 201.148 742.705 201.148Z" fill="#2950B1"/>
<path d="M760.633 201.148C762.823 201.148 764.598 199.374 764.598 197.186C764.598 194.999 762.823 193.225 760.633 193.225C758.444 193.225 756.669 194.999 756.669 197.186C756.669 199.374 758.444 201.148 760.633 201.148Z" fill="#2950B1"/>
<path d="M778.562 201.148C780.752 201.148 782.526 199.374 782.526 197.186C782.526 194.999 780.752 193.225 778.562 193.225C776.373 193.225 774.598 194.999 774.598 197.186C774.598 199.374 776.373 201.148 778.562 201.148Z" fill="#2950B1"/>
<path d="M728.626 212.37C729.129 210.241 727.81 208.108 725.679 207.605C723.549 207.102 721.414 208.42 720.91 210.55C720.407 212.679 721.727 214.812 723.857 215.315C725.988 215.818 728.123 214.499 728.626 212.37Z" fill="#2950B1"/>
<path d="M746.626 212.051C746.977 209.892 745.509 207.857 743.348 207.507C741.187 207.156 739.151 208.623 738.8 210.782C738.449 212.942 739.917 214.977 742.078 215.327C744.239 215.677 746.275 214.211 746.626 212.051Z" fill="#2950B1"/>
<path d="M764.566 212.066C764.917 209.906 763.45 207.871 761.288 207.521C759.127 207.17 757.091 208.637 756.741 210.796C756.39 212.956 757.857 214.991 760.018 215.341C762.179 215.692 764.216 214.225 764.566 212.066Z" fill="#2950B1"/>
<path d="M782.507 212.079C782.858 209.92 781.391 207.885 779.23 207.534C777.068 207.184 775.032 208.65 774.681 210.81C774.331 212.97 775.798 215.004 777.959 215.355C780.12 215.705 782.157 214.239 782.507 212.079Z" fill="#2950B1"/>
<path d="M724.747 229.628C726.936 229.628 728.711 227.854 728.711 225.666C728.711 223.479 726.936 221.705 724.747 221.705C722.557 221.705 720.783 223.479 720.783 225.666C720.783 227.854 722.557 229.628 724.747 229.628Z" fill="#2950B1"/>
<path d="M742.705 229.628C744.895 229.628 746.669 227.854 746.669 225.666C746.669 223.479 744.895 221.705 742.705 221.705C740.516 221.705 738.741 223.479 738.741 225.666C738.741 227.854 740.516 229.628 742.705 229.628Z" fill="#2950B1"/>
<path d="M760.633 229.628C762.823 229.628 764.598 227.854 764.598 225.666C764.598 223.479 762.823 221.705 760.633 221.705C758.444 221.705 756.669 223.479 756.669 225.666C756.669 227.854 758.444 229.628 760.633 229.628Z" fill="#2950B1"/>
<path d="M778.562 229.628C780.752 229.628 782.526 227.854 782.526 225.666C782.526 223.479 780.752 221.705 778.562 221.705C776.373 221.705 774.598 223.479 774.598 225.666C774.598 227.854 776.373 229.628 778.562 229.628Z" fill="#2950B1"/>
<path d="M724.747 243.852C726.936 243.852 728.711 242.079 728.711 239.891C728.711 237.703 726.936 235.93 724.747 235.93C722.557 235.93 720.783 237.703 720.783 239.891C720.783 242.079 722.557 243.852 724.747 243.852Z" fill="#2950B1"/>
<path d="M742.705 243.852C744.895 243.852 746.669 242.079 746.669 239.891C746.669 237.703 744.895 235.93 742.705 235.93C740.516 235.93 738.741 237.703 738.741 239.891C738.741 242.079 740.516 243.852 742.705 243.852Z" fill="#2950B1"/>
<path d="M760.633 243.852C762.823 243.852 764.598 242.079 764.598 239.891C764.598 237.703 762.823 235.93 760.633 235.93C758.444 235.93 756.669 237.703 756.669 239.891C756.669 242.079 758.444 243.852 760.633 243.852Z" fill="#2950B1"/>
<path d="M778.562 243.852C780.752 243.852 782.526 242.079 782.526 239.891C782.526 237.703 780.752 235.93 778.562 235.93C776.373 235.93 774.598 237.703 774.598 239.891C774.598 242.079 776.373 243.852 778.562 243.852Z" fill="#2950B1"/>
<path d="M724.747 258.077C726.936 258.077 728.711 256.304 728.711 254.116C728.711 251.928 726.936 250.155 724.747 250.155C722.557 250.155 720.783 251.928 720.783 254.116C720.783 256.304 722.557 258.077 724.747 258.077Z" fill="#2950B1"/>
<path d="M742.705 258.077C744.895 258.077 746.669 256.304 746.669 254.116C746.669 251.928 744.895 250.155 742.705 250.155C740.516 250.155 738.741 251.928 738.741 254.116C738.741 256.304 740.516 258.077 742.705 258.077Z" fill="#2950B1"/>
<path d="M760.633 258.077C762.823 258.077 764.598 256.304 764.598 254.116C764.598 251.928 762.823 250.155 760.633 250.155C758.444 250.155 756.669 251.928 756.669 254.116C756.669 256.304 758.444 258.077 760.633 258.077Z" fill="#2950B1"/>
<path d="M778.562 258.077C780.752 258.077 782.526 256.304 782.526 254.116C782.526 251.928 780.752 250.155 778.562 250.155C776.373 250.155 774.598 251.928 774.598 254.116C774.598 256.304 776.373 258.077 778.562 258.077Z" fill="#2950B1"/>
<path d="M724.747 272.332C726.936 272.332 728.711 270.559 728.711 268.371C728.711 266.183 726.936 264.41 724.747 264.41C722.557 264.41 720.783 266.183 720.783 268.371C720.783 270.559 722.557 272.332 724.747 272.332Z" fill="#2950B1"/>
<path d="M742.705 272.332C744.895 272.332 746.669 270.559 746.669 268.371C746.669 266.183 744.895 264.41 742.705 264.41C740.516 264.41 738.741 266.183 738.741 268.371C738.741 270.559 740.516 272.332 742.705 272.332Z" fill="#2950B1"/>
<path d="M760.633 272.332C762.823 272.332 764.598 270.559 764.598 268.371C764.598 266.183 762.823 264.41 760.633 264.41C758.444 264.41 756.669 266.183 756.669 268.371C756.669 270.559 758.444 272.332 760.633 272.332Z" fill="#2950B1"/>
<path d="M778.562 272.332C780.752 272.332 782.526 270.559 782.526 268.371C782.526 266.183 780.752 264.41 778.562 264.41C776.373 264.41 774.598 266.183 774.598 268.371C774.598 270.559 776.373 272.332 778.562 272.332Z" fill="#2950B1"/>
<path d="M738.528 -351.848C705.832 -358.769 673.017 -363.074 640.302 -363.692C558.519 -365.188 469.84 -324.919 431.163 -238.3C376.807 -116.476 436.571 53.5313 545.509 107.247C589.144 128.749 637.257 132.468 683.601 126.887C731.488 121.101 774.864 101.489 821.424 89.9298C900.09 70.3566 985.173 98.2614 1062.02 71.221C1099.42 58.074 1124.03 26.4044 1129.64 -18.7967C1139.29 -96.2527 1112.46 -181.665 1055 -227.142C1029.27 -247.508 1000.02 -260.962 970.798 -273.403C895.419 -305.583 817.482 -335.153 738.528 -351.848Z" fill="#4F6DB9"/>
<path d="M225.663 1421.43C257.688 1432.6 290.232 1441.5 323.238 1447.16C405.755 1461.27 501.622 1439.9 553.971 1370.14C627.555 1272.03 593.028 1113.89 491.004 1049.83C450.137 1024.19 402.024 1013.4 354.284 1011.04C304.95 1008.61 258.071 1018.99 209.2 1021.82C126.621 1026.64 44.7952 988.903 -37.0785 1000.55C-76.9284 1006.2 -106.665 1030.06 -119.235 1068.75C-140.811 1135.03 -126.704 1213.97 -75.5005 1262.77C-52.5815 1284.62 -25.0338 1300.97 2.62952 1316.43C73.9854 1356.39 148.327 1394.46 225.663 1421.43Z" fill="#4F6DB9"/>
<g opacity="0.3">
<path d="M680.747 911.923C682.937 911.923 684.711 910.149 684.711 907.961C684.711 905.774 682.937 904 680.747 904C678.558 904 676.783 905.774 676.783 907.961C676.783 910.149 678.558 911.923 680.747 911.923Z" fill="#2950B1" fill-opacity="0.3"/>
<path d="M698.706 911.923C700.895 911.923 702.67 910.149 702.67 907.961C702.67 905.774 700.895 904 698.706 904C696.516 904 694.742 905.774 694.742 907.961C694.742 910.149 696.516 911.923 698.706 911.923Z" fill="#2950B1" fill-opacity="0.3"/>
<path d="M716.634 911.923C718.823 911.923 720.598 910.149 720.598 907.961C720.598 905.774 718.823 904 716.634 904C714.445 904 712.67 905.774 712.67 907.961C712.67 910.149 714.445 911.923 716.634 911.923Z" fill="#2950B1" fill-opacity="0.3"/>
<path d="M734.563 911.923C736.752 911.923 738.527 910.149 738.527 907.961C738.527 905.774 736.752 904 734.563 904C732.373 904 730.599 905.774 730.599 907.961C730.599 910.149 732.373 911.923 734.563 911.923Z" fill="#2950B1" fill-opacity="0.3"/>
<path d="M680.747 926.148C682.937 926.148 684.711 924.374 684.711 922.186C684.711 919.998 682.937 918.225 680.747 918.225C678.558 918.225 676.783 919.998 676.783 922.186C676.783 924.374 678.558 926.148 680.747 926.148Z" fill="#2950B1" fill-opacity="0.3"/>
<path d="M698.706 926.148C700.895 926.148 702.67 924.374 702.67 922.186C702.67 919.998 700.895 918.225 698.706 918.225C696.516 918.225 694.742 919.998 694.742 922.186C694.742 924.374 696.516 926.148 698.706 926.148Z" fill="#2950B1" fill-opacity="0.3"/>
<path d="M716.634 926.148C718.823 926.148 720.598 924.374 720.598 922.186C720.598 919.998 718.823 918.225 716.634 918.225C714.445 918.225 712.67 919.998 712.67 922.186C712.67 924.374 714.445 926.148 716.634 926.148Z" fill="#2950B1" fill-opacity="0.3"/>
<path d="M734.563 926.148C736.752 926.148 738.527 924.374 738.527 922.186C738.527 919.998 736.752 918.225 734.563 918.225C732.373 918.225 730.599 919.998 730.599 922.186C730.599 924.374 732.373 926.148 734.563 926.148Z" fill="#2950B1" fill-opacity="0.3"/>
<path d="M684.627 937.37C685.13 935.241 683.81 933.107 681.68 932.604C679.549 932.102 677.414 933.42 676.911 935.549C676.408 937.678 677.727 939.812 679.858 940.315C681.989 940.817 684.124 939.499 684.627 937.37Z" fill="#2950B1" fill-opacity="0.3"/>
<path d="M702.626 937.051C702.977 934.892 701.51 932.857 699.349 932.506C697.187 932.156 695.151 933.622 694.801 935.782C694.45 937.941 695.917 939.976 698.078 940.327C700.24 940.677 702.276 939.211 702.626 937.051Z" fill="#2950B1" fill-opacity="0.3"/>
<path d="M720.567 937.065C720.918 934.905 719.45 932.871 717.289 932.52C715.128 932.17 713.092 933.636 712.741 935.796C712.391 937.955 713.858 939.99 716.019 940.341C718.18 940.691 720.217 939.225 720.567 937.065Z" fill="#2950B1" fill-opacity="0.3"/>
<path d="M738.508 937.079C738.859 934.919 737.391 932.885 735.23 932.534C733.069 932.184 731.033 933.65 730.682 935.81C730.331 937.969 731.799 940.004 733.96 940.355C736.121 940.705 738.157 939.238 738.508 937.079Z" fill="#2950B1" fill-opacity="0.3"/>
<path d="M680.747 954.627C682.937 954.627 684.711 952.854 684.711 950.666C684.711 948.478 682.937 946.705 680.747 946.705C678.558 946.705 676.783 948.478 676.783 950.666C676.783 952.854 678.558 954.627 680.747 954.627Z" fill="#2950B1" fill-opacity="0.3"/>
<path d="M698.706 954.627C700.895 954.627 702.67 952.854 702.67 950.666C702.67 948.478 700.895 946.705 698.706 946.705C696.516 946.705 694.742 948.478 694.742 950.666C694.742 952.854 696.516 954.627 698.706 954.627Z" fill="#2950B1" fill-opacity="0.3"/>
<path d="M716.634 954.627C718.823 954.627 720.598 952.854 720.598 950.666C720.598 948.478 718.823 946.705 716.634 946.705C714.445 946.705 712.67 948.478 712.67 950.666C712.67 952.854 714.445 954.627 716.634 954.627Z" fill="#2950B1" fill-opacity="0.3"/>
<path d="M734.563 954.627C736.752 954.627 738.527 952.854 738.527 950.666C738.527 948.478 736.752 946.705 734.563 946.705C732.373 946.705 730.599 948.478 730.599 950.666C730.599 952.854 732.373 954.627 734.563 954.627Z" fill="#2950B1" fill-opacity="0.3"/>
<path d="M680.747 968.852C682.937 968.852 684.711 967.079 684.711 964.891C684.711 962.703 682.937 960.929 680.747 960.929C678.558 960.929 676.783 962.703 676.783 964.891C676.783 967.079 678.558 968.852 680.747 968.852Z" fill="#2950B1" fill-opacity="0.3"/>
<path d="M698.706 968.852C700.895 968.852 702.67 967.079 702.67 964.891C702.67 962.703 700.895 960.929 698.706 960.929C696.516 960.929 694.742 962.703 694.742 964.891C694.742 967.079 696.516 968.852 698.706 968.852Z" fill="#2950B1" fill-opacity="0.3"/>
<path d="M716.634 968.852C718.823 968.852 720.598 967.079 720.598 964.891C720.598 962.703 718.823 960.929 716.634 960.929C714.445 960.929 712.67 962.703 712.67 964.891C712.67 967.079 714.445 968.852 716.634 968.852Z" fill="#2950B1" fill-opacity="0.3"/>
<path d="M734.563 968.852C736.752 968.852 738.527 967.079 738.527 964.891C738.527 962.703 736.752 960.929 734.563 960.929C732.373 960.929 730.599 962.703 730.599 964.891C730.599 967.079 732.373 968.852 734.563 968.852Z" fill="#2950B1" fill-opacity="0.3"/>
<path d="M680.747 983.077C682.937 983.077 684.711 981.303 684.711 979.116C684.711 976.928 682.937 975.154 680.747 975.154C678.558 975.154 676.783 976.928 676.783 979.116C676.783 981.303 678.558 983.077 680.747 983.077Z" fill="#2950B1" fill-opacity="0.3"/>
<path d="M698.706 983.077C700.895 983.077 702.67 981.303 702.67 979.116C702.67 976.928 700.895 975.154 698.706 975.154C696.516 975.154 694.742 976.928 694.742 979.116C694.742 981.303 696.516 983.077 698.706 983.077Z" fill="#2950B1" fill-opacity="0.3"/>
<path d="M716.634 983.077C718.823 983.077 720.598 981.303 720.598 979.116C720.598 976.928 718.823 975.154 716.634 975.154C714.445 975.154 712.67 976.928 712.67 979.116C712.67 981.303 714.445 983.077 716.634 983.077Z" fill="#2950B1" fill-opacity="0.3"/>
<path d="M734.563 983.077C736.752 983.077 738.527 981.303 738.527 979.116C738.527 976.928 736.752 975.154 734.563 975.154C732.373 975.154 730.599 976.928 730.599 979.116C730.599 981.303 732.373 983.077 734.563 983.077Z" fill="#2950B1" fill-opacity="0.3"/>
<path d="M680.747 997.332C682.937 997.332 684.711 995.558 684.711 993.37C684.711 991.182 682.937 989.409 680.747 989.409C678.558 989.409 676.783 991.182 676.783 993.37C676.783 995.558 678.558 997.332 680.747 997.332Z" fill="#2950B1" fill-opacity="0.3"/>
<path d="M698.706 997.332C700.895 997.332 702.67 995.558 702.67 993.37C702.67 991.182 700.895 989.409 698.706 989.409C696.516 989.409 694.742 991.182 694.742 993.37C694.742 995.558 696.516 997.332 698.706 997.332Z" fill="#2950B1" fill-opacity="0.3"/>
<path d="M716.634 997.332C718.823 997.332 720.598 995.558 720.598 993.37C720.598 991.182 718.823 989.409 716.634 989.409C714.445 989.409 712.67 991.182 712.67 993.37C712.67 995.558 714.445 997.332 716.634 997.332Z" fill="#2950B1" fill-opacity="0.3"/>
<path d="M734.563 997.332C736.752 997.332 738.527 995.558 738.527 993.37C738.527 991.182 736.752 989.409 734.563 989.409C732.373 989.409 730.599 991.182 730.599 993.37C730.599 995.558 732.373 997.332 734.563 997.332Z" fill="#2950B1" fill-opacity="0.3"/>
</g>
<g clipPath="url(#clip1_1_4780)">
<path d="M451.244 407.137L446.315 398.621L419.377 414.672L424.283 423.189L408.867 450.747L399.145 450.816L399.37 482.53L409.092 482.461L424.913 509.792L420.12 518.376L447.283 534.017L452.099 525.454L483.336 525.226L488.265 533.72L515.203 517.669L510.297 509.175L525.713 481.594L535.435 481.525L535.21 449.811L525.488 449.902L509.667 422.549L514.46 413.987L487.297 398.324L482.481 406.909L451.244 407.137Z" fill="white" stroke="#18181B" strokeWidth="1.5" stroke-miterlimit="10" strokeLinecap="round" strokeLinejoin="round"/>
<path d="M467.11 440.815C480.928 440.724 492.203 451.98 492.293 465.999C492.383 480.018 481.288 491.457 467.47 491.548C453.652 491.64 442.377 480.383 442.287 466.364C442.197 452.345 453.292 440.906 467.11 440.815Z" fill="white" stroke="#18181B" strokeWidth="1.5" stroke-miterlimit="10" strokeLinecap="round" strokeLinejoin="round"/>
<path d="M143.736 307.84C143.736 307.84 82.5902 362.044 150.353 430.974" stroke="#142D6C" strokeWidth="1.5" stroke-miterlimit="10" strokeLinecap="round" strokeLinejoin="round" stroke-dasharray="6.22 6.22"/>
<path d="M90.1293 609.203C81.3073 624.432 62.3357 639.068 75.9287 660.256C85.3132 674.869 104.15 680.075 96.8133 700.829C93.9101 709.049 88.3514 715.282 90.0168 724.529C91.4796 732.589 97.691 738.936 103.16 744.484C107.863 749.256 115.425 753.754 118.913 759.599C124.629 769.12 118.778 776.29 116.078 785.742C113.489 794.761 113.084 804.716 118.013 813.141C124.539 824.283 137.277 825.402 145.672 833.553C145.672 833.553 184.268 859.148 200.066 811.908C203.802 800.743 209.338 790.514 206.66 777.865C204.635 768.298 197.658 761.266 189.714 756.426C181.387 751.357 172.317 750.124 170.112 739.21C168.762 732.52 171.282 724.004 171.53 717.268C171.822 709.414 172.115 700.464 167.794 693.568C162.82 685.623 154.561 684.892 146.909 680.874C127.623 670.713 137.952 653.909 135.027 636.716C130.796 611.806 107.076 614.18 90.3993 609.089L90.1293 609.203Z" fill="#D6E1FF" stroke="#D6E1FF" strokeWidth="1.5" stroke-miterlimit="10"/>
<path d="M105.5 648.452L179.384 839.535" stroke="#18181B" strokeWidth="1.5" stroke-miterlimit="10" strokeLinecap="round" strokeLinejoin="round"/>
<path d="M108.628 714.574L137.817 732.064" stroke="#18181B" strokeWidth="1.5" stroke-miterlimit="10" strokeLinecap="round" strokeLinejoin="round"/>
<path d="M165.611 803.94L181.409 777.5" stroke="#142D6C" strokeWidth="1.5" stroke-miterlimit="10" strokeLinecap="round" strokeLinejoin="round"/>
<path d="M128.073 706.834L135.814 682.814" stroke="#18181B" strokeWidth="1.5" stroke-miterlimit="10" strokeLinecap="round" strokeLinejoin="round"/>
<path d="M154.404 605.39H303.342V515.728L154.404 538.309V605.39Z" fill="#142D6C"/>
<path d="M152.243 840.494L175.491 816.224H195.138V840.494H152.243Z" fill="#142D6C"/>
<path d="M280.139 840.494L265.083 816.224H245.458V840.494H280.139Z" fill="#142D6C"/>
<path d="M291.639 604.934V822.662H231.393V648.977H223.539L212.511 822.662H152.243L163.293 648.977L166.106 604.934H291.639Z" fill="white" stroke="#142D6C" strokeWidth="1.5" stroke-miterlimit="10" strokeLinecap="round" strokeLinejoin="round"/>
<path d="M320.333 497.348C320.333 447.003 282.344 424.559 232.743 423.371C231.731 423.349 230.695 423.326 229.66 423.326C155.034 423.326 131.494 478.352 127.96 487.85C120.084 508.992 97.9387 575.297 169.302 605.961C190.772 615.186 206.12 592.81 217.575 586.828C237.559 576.393 244.761 573.791 244.761 573.791L320.333 497.348Z" fill="#142D6C"/>
<path d="M287.273 522.417C287.273 522.417 295.24 559.223 339.732 551.278C384.224 543.332 371.216 473.899 371.216 473.899H336.784L335.523 505.841C335.523 505.841 317.272 457.825 294.384 441.363C280.454 431.339 287.273 522.417 287.273 522.417Z" fill="#142D6C"/>
<path d="M302.801 507.988V546.186" stroke="white" strokeWidth="1.5" stroke-miterlimit="10" strokeLinecap="round" strokeLinejoin="round"/>
<path d="M199.684 597.719L212.196 610.505L222.279 622.606L218.048 626.921L221.784 631.899L200.876 648.384L173.69 615.254L199.684 597.719Z" fill="white" stroke="#18181B" strokeWidth="1.5" stroke-miterlimit="10" strokeLinecap="round" strokeLinejoin="round"/>
<path d="M217.417 635.072L208.438 624.684" stroke="#18181B" strokeWidth="1.5" stroke-miterlimit="10" strokeLinecap="round" strokeLinejoin="round"/>
<path d="M211.544 639.182L202.542 628.771" stroke="#18181B" strokeWidth="1.5" stroke-miterlimit="10" strokeLinecap="round" strokeLinejoin="round"/>
<path d="M205.985 643.68L197.005 633.269" stroke="#18181B" strokeWidth="1.5" stroke-miterlimit="10" strokeLinecap="round" strokeLinejoin="round"/>
<path d="M218.16 627.127L211.544 619.364" stroke="#18181B" strokeWidth="1.5" stroke-miterlimit="10" strokeLinecap="round" strokeLinejoin="round"/>
<path d="M166.151 509.906C147.269 550.798 205.152 595.824 205.152 595.824L170.517 622.012C170.517 622.012 123.977 582.056 121.591 555.022" fill="#142D6C"/>
<path d="M225.474 400.927C225.474 400.927 203.419 406.726 202.114 379.51C200.786 352.317 243.838 342.499 253.965 353.87C264.093 365.24 225.474 400.927 225.474 400.927Z" fill="#18181B"/>
<path d="M227.545 438.075C235.061 438.075 241.138 431.888 241.138 424.285V379.442H213.952V424.285C213.952 431.911 220.028 438.075 227.545 438.075Z" fill="white" stroke="#142D6C" strokeWidth="1.5" stroke-miterlimit="10" strokeLinecap="round" strokeLinejoin="round"/>
<path d="M204.387 381.679C204.049 385.903 207.155 389.602 211.318 389.944C211.971 389.99 212.601 389.967 213.209 389.853C213.501 392.662 214.379 395.333 215.707 397.685C218.88 403.393 224.709 407.434 231.64 408.005C242.735 408.918 252.458 400.516 253.335 389.259C254.235 378.003 245.954 368.14 234.859 367.249C227.342 366.633 220.455 370.286 216.54 376.222C215.437 375.332 214.064 374.784 212.556 374.647C208.37 374.327 204.725 377.455 204.387 381.679Z" fill="white" stroke="#142D6C" strokeWidth="1.5" stroke-miterlimit="10" strokeLinecap="round" strokeLinejoin="round"/>
<path d="M215.595 385.561C215.595 385.561 215.662 381.679 211.881 381.908" stroke="#142D6C" strokeWidth="1.5" stroke-miterlimit="10" strokeLinecap="round" strokeLinejoin="round"/>
<path d="M644.494 472.209H266.343V840.495H644.494V472.209Z" fill="#D6E1FF"/>
<path d="M342.23 458.853L342.455 480.292L368.898 480.155L369.461 459.058L342.23 458.853Z" fill="white" stroke="#142D6C" strokeWidth="1.5" stroke-miterlimit="10" strokeLinecap="round" strokeLinejoin="round"/>
<path d="M347.789 479.927L348.148 466.09" stroke="#142D6C" strokeWidth="1.5" stroke-miterlimit="10" strokeLinecap="round" strokeLinejoin="round"/>
<path d="M354.9 479.242L355.26 465.428" stroke="#142D6C" strokeWidth="1.5" stroke-miterlimit="10" strokeLinecap="round" strokeLinejoin="round"/>
<path d="M361.989 479.105L362.349 465.269" stroke="#142D6C" strokeWidth="1.5" stroke-miterlimit="10" strokeLinecap="round" strokeLinejoin="round"/>
<path d="M166.151 509.906C147.27 550.798 205.152 595.824 205.152 595.824" stroke="white" strokeWidth="1.5" stroke-miterlimit="10" strokeLinecap="round" strokeLinejoin="round"/>
<path d="M593.836 542.167H317.655V585.252H593.836V542.167Z" fill="white"/>
<path d="M593.836 603.335H317.655V646.42H593.836V603.335Z" fill="white"/>
<path d="M593.836 666.398H317.655V709.483H593.836V666.398Z" fill="white"/>
<path d="M538.878 740.078H372.612V783.163H538.878V740.078Z" fill="#142D6C"/>
<path d="M587.242 445.358C616.574 445.358 640.353 421.234 640.353 391.474C640.353 361.715 616.574 337.59 587.242 337.59C557.909 337.59 534.13 361.715 534.13 391.474C534.13 421.234 557.909 445.358 587.242 445.358Z" fill="white" stroke="#18181B" strokeWidth="1.5" stroke-miterlimit="10" strokeLinecap="round" strokeLinejoin="round" stroke-dasharray="6.22 6.22"/>
<path d="M102.62 840.357H728.303" stroke="#142D6C" strokeWidth="1.5" stroke-miterlimit="10" strokeLinecap="round" strokeLinejoin="round"/>
<path d="M673.188 840.358H580.557L567.955 735.694H685.768L673.188 840.358Z" fill="#142D6C"/>
<path d="M693.622 735.694H560.123V759.554H693.622V735.694Z" fill="white" stroke="#142D6C" strokeWidth="1.5" stroke-miterlimit="10" strokeLinecap="round" strokeLinejoin="round"/>
<path d="M626.873 735.694V629.044" stroke="#18181B" strokeWidth="1.5" stroke-miterlimit="10" strokeLinecap="round" strokeLinejoin="round"/>
<path d="M626.873 679.367C659.263 679.367 685.52 652.727 685.52 619.866C685.52 587.004 659.263 560.365 626.873 560.365C594.482 560.365 568.225 587.004 568.225 619.866C568.225 652.727 594.482 679.367 626.873 679.367Z" fill="white" stroke="#18181B" strokeWidth="1.5" stroke-miterlimit="10" strokeLinecap="round" strokeLinejoin="round"/>
<path d="M660.182 653.673C678.586 635.002 678.586 604.73 660.182 586.059C641.779 567.388 611.941 567.388 593.538 586.059C575.134 604.73 575.134 635.002 593.538 653.673C611.941 672.344 641.779 672.344 660.182 653.673Z" fill="white" stroke="#18181B" strokeWidth="1.5" stroke-miterlimit="10" strokeLinecap="round" strokeLinejoin="round"/>
<path d="M626.873 735.443C626.873 735.443 626.873 690.075 581.525 684.458C577.745 722.292 626.873 735.443 626.873 735.443Z" fill="#142D6C"/>
<path d="M591.112 697.062L616.138 721.835" stroke="white" strokeWidth="1.5" stroke-miterlimit="10" strokeLinecap="round" strokeLinejoin="round"/>
<path d="M627.075 735.945C627.075 735.945 627.075 690.578 672.423 684.961C676.226 722.794 627.075 735.945 627.075 735.945Z" fill="#142D6C"/>
<path d="M662.836 697.564L637.81 722.36" stroke="white" strokeWidth="1.5" stroke-miterlimit="10" strokeLinecap="round" strokeLinejoin="round"/>
<path d="M607.901 613.085V626.305C607.901 637.173 616.52 645.963 627.233 645.963C637.945 645.963 646.609 637.15 646.609 626.305V613.085H607.901ZM629.551 633.292H624.915V623.268H629.551V633.292Z" fill="#142D6C"/>
<path d="M639.318 609.295V606.737C639.318 599.979 633.917 594.477 627.233 594.477C620.571 594.477 615.147 599.956 615.147 606.737V609.295" stroke="#142D6C" strokeWidth="1.5" stroke-miterlimit="10"/>
<path d="M667.224 550.433C667.224 550.433 706.203 479.105 636.572 439.354" stroke="#142D6C" strokeWidth="1.5" stroke-miterlimit="10" strokeLinecap="round" strokeLinejoin="round" stroke-dasharray="6.22 6.22"/>
<path d="M422.753 403.621L420.57 386.588L415.349 387.296L405.041 373.665L407.067 368.733L391.426 362.135L389.423 367.067L372.634 369.281L369.438 365.034L356.003 375.469L359.199 379.716L352.695 395.561L347.474 396.269L349.657 413.302L354.878 412.617L365.163 426.248L363.137 431.18L378.778 437.778L380.803 432.846L397.592 430.632L400.788 434.878L414.223 424.444L411.028 420.197L417.532 404.329L422.753 403.621ZM386.857 413.576C379.431 414.558 372.634 409.261 371.666 401.749C370.699 394.214 375.92 387.319 383.347 386.337C390.773 385.355 397.57 390.652 398.537 398.187C399.505 405.699 394.284 412.594 386.857 413.576Z" fill="#142D6C"/>
<path d="M400.495 239.708H165.611V307.84H400.495V239.708Z" fill="#FEE500" stroke="#142D6C" strokeWidth="1.5" stroke-miterlimit="10" strokeLinecap="round" strokeLinejoin="round" stroke-dasharray="6.22 6.22"/>
<path d="M200.854 284.277C206.571 284.277 211.206 279.574 211.206 273.774C211.206 267.973 206.571 263.271 200.854 263.271C195.136 263.271 190.501 267.973 190.501 273.774C190.501 279.574 195.136 284.277 200.854 284.277Z" fill="white"/>
<path d="M233.576 284.277C239.293 284.277 243.928 279.574 243.928 273.774C243.928 267.973 239.293 263.271 233.576 263.271C227.859 263.271 223.224 267.973 223.224 273.774C223.224 279.574 227.859 284.277 233.576 284.277Z" fill="white"/>
<path d="M266.298 284.277C272.015 284.277 276.65 279.574 276.65 273.774C276.65 267.973 272.015 263.271 266.298 263.271C260.581 263.271 255.946 267.973 255.946 273.774C255.946 279.574 260.581 284.277 266.298 284.277Z" fill="white"/>
<path d="M299.02 284.277C304.738 284.277 309.373 279.574 309.373 273.774C309.373 267.973 304.738 263.271 299.02 263.271C293.303 263.271 288.668 267.973 288.668 273.774C288.668 279.574 293.303 284.277 299.02 284.277Z" fill="white"/>
<path d="M331.765 284.277C337.482 284.277 342.117 279.574 342.117 273.774C342.117 267.973 337.482 263.271 331.765 263.271C326.047 263.271 321.413 267.973 321.413 273.774C321.413 279.574 326.047 284.277 331.765 284.277Z" fill="white"/>
<path d="M374.839 273.774C374.839 279.573 370.203 284.277 364.487 284.277C358.771 284.277 354.135 279.573 354.135 273.774C354.135 267.974 358.771 263.271 364.487 263.271C370.203 263.271 374.839 267.974 374.839 273.774Z" fill="white"/>
<path d="M603.647 392.342C598.516 397.548 590.212 397.548 585.081 392.342C579.95 387.136 579.95 378.711 585.081 373.505C590.212 368.3 598.516 368.3 603.647 373.505C608.778 378.711 608.778 387.159 603.647 392.342Z" fill="#142D6C"/>
<path d="M594.375 382.935L571.533 406.087L578.667 413.325" stroke="#142D6C" strokeWidth="1.5" stroke-miterlimit="10"/>
<path d="M583.213 404.9L577.969 399.58" stroke="#142D6C" strokeWidth="1.5" stroke-miterlimit="10"/>
<path d="M599.304 387.935C596.581 390.698 592.17 390.698 589.424 387.935C586.701 385.173 586.701 380.697 589.424 377.912C592.147 375.149 596.558 375.149 599.304 377.912C602.027 380.697 602.027 385.173 599.304 387.935Z" fill="white"/>
</g>
</g>
<defs>
<clipPath id="clip0_1_4780">
<rect width="800" height="1080" fill="white"/>
</clipPath>
<clipPath id="clip1_1_4780">
<rect width="658" height="602.065" fill="white" transform="translate(71 239)"/>
</clipPath>
</defs>
</svg>
